<svg width="46" height="70" viewBox="0 0 46 70" fill="none" xmlns="http://www.w3.org/2000/svg">
<g clip-path="url(#clip0_1_28)">
<path fill-rule="evenodd" clip-rule="evenodd" d="M31.9761 67.2073C29.2003 62.9394 27.5891 57.7633 27.1035 52.4156C26.7088 48.6018 26.787 44.7109 27.1539 40.8226C27.8764 41.2322 28.6745 41.5008 29.4627 41.6584C31.0072 41.9629 32.5377 41.808 33.9701 41.4456C35.4038 41.072 36.726 40.429 37.9023 39.5574C39.066 38.6724 40.1288 37.6046 40.8188 36.0853C39.1801 35.9264 37.8061 36.0255 36.4905 36.1957C35.1796 36.3606 33.9655 36.6512 32.7872 36.945C31.6102 37.2402 30.4811 37.6179 29.3273 38.0009C28.7004 38.2057 28.0754 38.4204 27.3874 38.6511C27.4896 37.8087 27.5998 36.9663 27.7238 36.1272C27.887 35.0654 28.0728 34.0069 28.2705 32.9491C29.1117 33.5428 30.1036 33.9065 31.0802 34.1013C32.6246 34.4065 34.1545 34.2509 35.5869 33.8886C37.0213 33.5149 38.3435 32.8719 39.5191 32.0003C40.6828 31.116 41.7456 30.0475 42.4356 28.5289C40.7969 28.37 39.4236 28.4691 38.1073 28.6386C36.797 28.8042 35.5829 29.0947 34.404 29.3886C33.2277 29.6832 32.0985 30.0608 30.9448 30.4445C30.1991 30.6865 29.4594 30.9451 28.6075 31.2257C28.918 29.7078 29.261 28.1945 29.6365 26.6872C30.7279 27.4864 31.9877 27.9598 33.2887 28.1293C34.8797 28.3773 36.5297 28.1679 38.045 27.6307C39.5669 27.1027 40.9521 26.2125 42.0515 25.0562C43.1309 23.8947 44.0153 22.4831 44.2096 20.7631C42.565 21.1839 41.2799 21.6174 40.0227 22.029L36.4952 23.2437L33.0081 24.4811C32.3997 24.7357 31.7662 24.9146 31.0954 25.1945C30.708 25.3574 30.3092 25.4984 29.8926 25.6679C30.349 23.898 30.848 22.1367 31.3827 20.3847C32.4256 21.3528 33.8653 21.8475 35.3056 21.914C36.9695 21.9545 38.5823 21.4645 39.9557 20.7019C41.3376 19.9339 42.4714 18.8681 43.3518 17.6301C44.2123 16.3821 44.879 14.9732 44.9779 13.2851C43.3837 13.7591 42.1238 14.321 40.9402 14.8994C39.7586 15.4652 38.7091 16.0896 37.6827 16.6434L34.6687 18.3103C33.783 18.7491 32.8535 19.1613 31.6182 19.6301C32.1463 17.9399 32.7129 16.2598 33.3014 14.5863C33.9834 15.1394 34.7987 15.3668 35.5889 15.4393C36.5117 15.5071 37.4439 15.3422 38.2758 14.9639C39.1025 14.5789 39.8615 14.0331 40.4114 13.2977C40.9734 12.5796 41.3608 11.7066 41.4059 10.6668C40.854 10.6907 40.4433 10.8137 40.0147 10.8908C39.5888 10.9666 39.2352 11.1016 38.8663 11.192C38.1657 11.4294 37.5222 11.6368 36.9231 11.9287C36.3147 12.2046 35.7262 12.5065 35.0993 12.8808C34.615 13.1714 34.1247 13.4919 33.5462 13.8974C33.998 12.6348 34.4697 11.3789 34.96 10.1295C35.5763 10.2805 36.2404 10.1974 36.8282 10.0265C37.6137 9.79044 38.3183 9.36624 38.9081 8.84497C39.5138 8.33168 39.9862 7.70137 40.3703 7.0305C40.5428 6.6821 40.7047 6.32838 40.8254 5.95671C40.9256 5.56975 41.0265 5.19076 41.0457 4.77122C40.6549 4.94941 40.3458 5.16882 40.0353 5.38092C39.7228 5.58969 39.4329 5.80445 39.1635 6.03118C38.6022 6.4587 38.1047 6.91348 37.6024 7.341C37.1088 7.77983 36.6272 8.21134 36.1196 8.63354C35.8476 8.85894 35.577 9.08633 35.2804 9.31305C35.4104 8.98792 36.8017 5.63025 37.3636 4.39157C36.7811 5.46802 36.2238 6.55843 35.6751 7.65416C35.6188 7.15882 35.5995 6.70404 35.5783 6.25126C35.5484 5.59102 35.5431 4.94342 35.5352 4.28186C35.5126 3.6223 35.5139 2.94744 35.4516 2.24332C35.4376 1.8916 35.4011 1.5319 35.3447 1.15956C35.2917 0.785895 35.2466 0.40957 35.1152 0C34.818 0.297204 34.607 0.626987 34.3881 0.96076C34.195 1.30118 34.0431 1.65889 33.9024 2.02125C33.6656 2.75728 33.5176 3.53187 33.5455 4.32575C33.5581 5.11364 33.7187 5.92147 34.0729 6.66215C34.3668 7.26122 34.7974 7.85429 35.3965 8.20269C35.1437 8.71333 33.5508 12.1215 33.0738 13.2013C33.0041 12.2405 32.9245 11.5058 32.8151 10.8097C32.6996 10.0883 32.553 9.44071 32.3752 8.79644C32.2153 8.14884 31.9605 7.51986 31.6932 6.82904C31.5267 6.48862 31.4033 6.12958 31.1883 5.75259C30.9733 5.37361 30.8042 4.97933 30.4685 4.53917C29.7015 5.24129 29.2809 6.09833 29.0905 6.99061C28.8802 7.88488 28.9485 8.81904 29.1834 9.70135C29.4269 10.5843 29.8979 11.4061 30.5414 12.073C31.1777 12.7093 31.9891 13.2425 33.0154 13.3349C32.2677 15.0284 31.5519 16.7378 30.8672 18.4606C30.574 17.4745 30.3696 16.7119 30.1487 15.9745C29.8959 15.0311 29.6166 14.1727 29.2544 13.2964C28.8915 12.4207 28.4908 11.5205 27.9315 10.6009C27.3722 9.67342 26.7187 8.73194 25.699 7.6894C24.7987 8.8616 24.4783 10.1189 24.3714 11.3596C24.2825 12.6036 24.4723 13.8489 24.9447 15.0277C25.4223 16.1999 26.1667 17.3223 27.2256 18.1673C28.1411 18.8754 29.2882 19.3847 30.5063 19.3561C30.4731 19.4419 30.4366 19.5257 30.4034 19.6115C29.7732 21.2418 29.1781 22.8874 28.6148 24.5443C28.4012 24.1945 28.1929 23.8727 28.0237 23.5183C27.8585 23.2218 27.6946 22.9452 27.5294 22.6852C27.3881 22.394 27.2441 22.1227 27.0942 21.8674C26.5416 20.8029 25.9863 19.8661 25.4721 18.8375C24.9394 17.8269 24.3907 16.7943 23.7472 15.6953C23.1023 14.5889 22.4024 13.4473 21.4026 12.1388C20.4777 13.5337 20.209 15.0803 20.2203 16.5949C20.2455 18.1161 20.6496 19.6307 21.3687 21.0164C22.0693 22.4073 23.1965 23.632 24.5373 24.4804C24.8816 24.6859 25.2326 24.874 25.5855 25.0436C25.9611 25.1879 26.3485 25.3016 26.7287 25.402C26.9237 25.4445 27.1088 25.4964 27.3052 25.5256C27.5102 25.5396 27.7079 25.5602 27.9142 25.5562C28.0343 25.5582 28.1531 25.5535 28.2718 25.5522C27.6953 27.2969 27.1625 29.0588 26.6703 30.8347C25.9843 29.9551 25.3314 29.249 24.7357 28.5163L22.3354 25.8016C21.5372 24.9279 20.7325 24.0456 19.8415 23.1161C18.9392 22.1826 17.9984 21.2285 16.7406 20.1301C16.1329 21.7152 16.2377 23.3415 16.6344 24.8401C17.0371 26.3501 17.8313 27.7424 18.8821 28.9126C19.9291 30.0828 21.2427 31.0428 22.7321 31.5748C23.8606 32.0189 25.0933 32.2024 26.3346 32.0701C26.0174 33.2722 25.7169 34.4796 25.4422 35.6957C25.2571 36.5355 25.0866 37.3805 24.9228 38.2276C24.2852 37.4238 23.6768 36.7595 23.1189 36.0727L20.7185 33.3593C19.9198 32.4843 19.1157 31.602 18.2247 30.6738C17.3217 29.7397 16.3816 28.7856 15.1244 27.6872C14.516 29.2723 14.6202 30.8986 15.0176 32.3972C15.4197 33.9065 16.2138 35.3001 17.2647 36.4696C18.3123 37.6398 19.6252 38.6006 21.1146 39.1318C22.2265 39.5693 23.4387 39.7562 24.662 39.6345C23.9123 43.8918 23.4831 48.2368 23.6277 52.6443C23.6483 54.0871 23.8035 55.5319 23.9468 56.9807L24.2885 59.1476C24.3947 59.8723 24.5997 60.5837 24.7536 61.3038C25.1395 62.8817 25.6361 65.4447 26.2498 66.9745C26.2796 67.0488 28.1883 67.1264 31.9761 67.2073Z" fill="#C08D5D"/>
</g>
<g clip-path="url(#clip1_1_28)">
<path fill-rule="evenodd" clip-rule="evenodd" d="M26.8552 64.5092C26.5248 61.9851 25.4567 59.4939 23.905 57.3029C22.8167 55.7246 21.5235 54.2707 20.1215 52.9114C19.9798 53.3017 19.7635 53.663 19.515 53.9788C19.0267 54.5961 18.3944 55.0342 17.7321 55.3615C17.0657 55.685 16.3542 55.8699 15.6239 55.9204C14.8941 55.9617 14.1433 55.9009 13.3876 55.5472C13.9591 54.9547 14.5137 54.5463 15.0692 54.1838C15.6211 53.8208 16.1771 53.5371 16.7205 53.2662C17.2639 52.9963 17.8159 52.7732 18.3789 52.5442C18.6837 52.4185 18.9911 52.2973 19.3276 52.1616C19.0152 51.8745 18.6998 51.5899 18.3802 51.3112C17.9734 50.9604 17.559 50.6183 17.1404 50.2803C17.0133 50.7792 16.7543 51.2395 16.4462 51.6307C15.9581 52.2482 15.3259 52.6858 14.6636 53.0132C13.9969 53.3368 13.2854 53.5217 12.5553 53.572C11.8258 53.6136 11.0747 53.5525 10.3193 53.1991C10.8907 52.6066 11.4451 52.1984 12.0006 51.8354C12.5525 51.4729 13.1085 51.1892 13.6522 50.9181C14.1951 50.6481 14.747 50.4251 15.3103 50.1963C15.6724 50.0462 16.0376 49.9044 16.4526 49.7344C15.8417 49.2581 15.2199 48.7941 14.5877 48.3429C14.4323 49.0012 14.1069 49.5903 13.6673 50.0772C13.143 50.688 12.4476 51.1442 11.697 51.4319C10.9469 51.7254 10.1311 51.8367 9.33773 51.754C8.55015 51.6628 7.75556 51.4133 7.12313 50.8224C7.88513 50.4484 8.5145 50.196 9.12616 49.9442L10.8618 49.2607L12.5894 48.5989C12.9034 48.4982 13.2024 48.3605 13.5483 48.2491C13.7485 48.1852 13.9459 48.1094 14.1594 48.0385C13.4111 47.5138 12.6495 47.0061 11.8774 46.5136C11.7951 47.2203 11.4084 47.8759 10.8823 48.3688C10.2628 48.9245 9.49051 49.2619 8.72072 49.4179C7.94592 49.5746 7.16875 49.5375 6.43202 49.3527C5.69962 49.1576 4.98863 48.8384 4.4029 48.2286C5.16299 47.8912 5.82445 47.6957 6.46229 47.5314C7.09528 47.3628 7.69706 47.2594 8.26714 47.1367L9.95436 46.7919C10.4336 46.6711 10.9209 46.526 11.5428 46.3032C10.7932 45.832 10.0322 45.3771 9.26505 44.9319C9.18535 45.3637 8.94917 45.7149 8.67227 45.999C8.3434 46.3245 7.93545 46.5645 7.49628 46.6907C7.05697 46.8128 6.59115 46.8517 6.14325 46.7507C5.69643 46.6601 5.26565 46.454 4.91084 46.0732C5.12849 45.9031 5.32458 45.8165 5.51257 45.7067C5.69913 45.5972 5.87741 45.5337 6.04702 45.4483C6.39048 45.3111 6.70252 45.181 7.02508 45.0975C7.34599 45.0048 7.66775 44.9285 8.02768 44.8673C8.30617 44.8205 8.59664 44.7831 8.9483 44.7495C8.36654 44.4161 7.77937 44.0918 7.18729 43.7759C7.00196 44.0335 6.72247 44.2175 6.44349 44.3434C6.06818 44.5087 5.66255 44.5762 5.26903 44.5695C4.87206 44.571 4.48779 44.4847 4.1239 44.3544C3.94519 44.2779 3.76878 44.196 3.60219 44.0939C3.43845 43.9793 3.27705 43.8679 3.13351 43.7147C3.33994 43.6555 3.52874 43.6386 3.71566 43.6184C3.90226 43.5963 4.08223 43.5838 4.25826 43.5826C4.61049 43.5629 4.94735 43.5742 5.27712 43.5737C5.60729 43.5803 5.93054 43.588 6.2606 43.5837C6.43721 43.5811 6.61397 43.5796 6.80034 43.5695C6.64533 43.4881 5.0261 42.6632 4.41024 42.3747C4.98124 42.5949 5.5472 42.8285 6.1116 43.067C5.9722 42.8603 5.83185 42.6812 5.6929 42.5021C5.48987 42.2414 5.28161 41.9934 5.06983 41.7393C4.86424 41.4812 4.6446 41.225 4.43969 40.9371C4.33078 40.7988 4.22785 40.6502 4.1284 40.4903C4.02725 40.331 3.9222 40.1733 3.83916 39.9749C4.04867 39.9914 4.23597 40.0483 4.42759 40.1041C4.61154 40.1708 4.78545 40.2575 4.95659 40.3496C5.28564 40.5526 5.5934 40.7991 5.84058 41.1099C6.09162 41.4136 6.29288 41.7729 6.39868 42.1696C6.48145 42.4928 6.51032 42.8581 6.39566 43.1851C6.65757 43.2971 8.36989 44.0758 8.90187 44.3314C8.61639 43.9435 8.4081 43.6383 8.22368 43.3381C8.03333 43.0263 7.8788 42.7325 7.73721 42.4298C7.58772 42.1316 7.48036 41.8098 7.3577 41.4603C7.31048 41.2768 7.24082 41.1002 7.20014 40.8871C7.15881 40.6732 7.09511 40.4683 7.07983 40.192C7.59942 40.2099 8.03763 40.3992 8.39975 40.6766C8.77009 40.9483 9.04744 41.3257 9.24463 41.7375C9.43875 42.1522 9.5265 42.6176 9.49835 43.0802C9.46305 43.5287 9.32769 43.9949 8.96746 44.3633C9.80162 44.7644 10.6289 45.1819 11.4486 45.6146C11.2399 45.1445 11.07 44.7882 10.9145 44.4361C10.7043 43.9953 10.5318 43.5782 10.385 43.1274C10.2386 42.6766 10.0987 42.2042 10.0127 41.673C9.92421 41.1387 9.86698 40.5686 9.91617 39.8411C10.6391 39.9944 11.1692 40.3684 11.6127 40.8055C12.0504 41.2496 12.3826 41.7847 12.5858 42.3863C12.7848 42.9871 12.8662 43.6556 12.738 44.3207C12.6198 44.8872 12.349 45.4533 11.8766 45.838C11.9171 45.8598 11.9581 45.8798 11.9986 45.9016C12.7676 46.3169 13.5282 46.7493 14.2804 47.1964C14.248 46.9941 14.2228 46.8041 14.172 46.6144C14.1385 46.448 14.111 46.2896 14.0894 46.1371C14.0486 45.9805 14.0152 45.8306 13.9894 45.6849C13.8538 45.1007 13.7608 44.5642 13.6223 44.0061C13.4967 43.4489 13.37 42.8781 13.2578 42.2513C13.1438 41.6212 13.0392 40.9599 12.9945 40.1378C13.7991 40.3678 14.4034 40.8686 14.8909 41.4482C15.3753 42.0348 15.7135 42.7418 15.89 43.5022C16.0752 44.2585 16.0443 45.0902 15.81 45.8481C15.7458 46.0381 15.6734 46.2236 15.5943 46.4026C15.4984 46.5794 15.388 46.7485 15.276 46.9101C15.2157 46.9896 15.1621 47.0694 15.097 47.1443C15.0236 47.2162 14.9551 47.2882 14.8753 47.3537C14.8303 47.3934 14.7837 47.4302 14.7381 47.4683C15.5238 47.9444 16.2985 48.4414 17.0623 48.9568C17.0375 48.3996 17.0564 47.9191 17.045 47.4471L17.0762 45.6355C17.096 45.0441 17.1155 44.4474 17.1524 43.8046C17.1924 43.1567 17.2403 42.4885 17.3619 41.6624C18.1076 42.0678 18.5959 42.7202 18.9316 43.4188C19.2688 44.1237 19.4189 44.9109 19.3993 45.6971C19.3812 46.4819 19.1935 47.2735 18.7999 47.9594C18.5151 48.4947 18.106 48.9647 17.591 49.3175C18.1019 49.6716 18.6083 50.0331 19.1076 50.4063C19.4506 50.6654 19.7898 50.9314 20.1272 51.2003C20.1086 50.6876 20.1242 50.2375 20.1134 49.7952L20.145 47.9841C20.1646 47.392 20.1838 46.7955 20.2212 46.1533C20.2612 45.5049 20.3088 44.8369 20.4302 44.011C21.1762 44.4161 21.6647 45.0683 22.0002 45.7672C22.3374 46.4716 22.488 47.2593 22.4681 48.0452C22.4498 48.8303 22.2626 49.6219 21.8687 50.3075C21.588 50.8349 21.1878 51.2995 20.6832 51.6505C22.3506 53.0258 23.9246 54.5385 25.3008 56.2613C25.7614 56.8165 26.1715 57.4163 26.5875 58.0137L27.1612 58.9485C27.3561 59.2585 27.5092 59.5956 27.6845 59.9193C28.0501 60.6446 28.6935 61.7803 28.9569 62.5613C28.9697 62.5992 28.2691 63.2485 26.8552 64.5092Z" fill="#C08D5D"/>
</g>
<defs>
<clipPath id="clip0_1_28">
<rect width="30.5182" height="67.8183" fill="white" transform="translate(14.6938)"/>
</clipPath>
<clipPath id="clip1_1_28">
<rect width="15.2591" height="33.9092" fill="white" transform="matrix(-0.760439 0.649409 0.649409 0.760439 11.6038 33.344)"/>
</clipPath>
</defs>
</svg>
