<svg width="75" height="72" viewBox="0 0 75 72" fill="none" xmlns="http://www.w3.org/2000/svg">
<g id="bbq" clip-path="url(#clip0_1_445)">
<path id="Vector" d="M27.6531 14.5118C26.4721 15.2908 24.8541 16.3575 24.8541 18.5306C24.8541 19.3074 25.5002 19.9369 26.2973 19.9369C27.0945 19.9369 27.7405 19.3074 27.7405 18.5306C27.7405 17.9116 28.183 17.5583 29.2705 16.8415C30.4521 16.0626 32.0701 14.9958 32.0701 12.8221C32.0701 10.6485 30.4521 9.58228 29.2705 8.80334C28.183 8.08649 27.7405 7.73328 27.7405 7.1142C27.7405 6.49512 28.183 6.14191 29.2705 5.42505C30.4521 4.64612 32.0701 3.5799 32.0701 1.40625C32.0701 0.630066 31.4235 0 30.6269 0C29.8297 0 29.1837 0.630066 29.1837 1.40625C29.1837 2.02533 28.7406 2.37854 27.6531 3.0954C26.4721 3.87433 24.8541 4.94055 24.8541 7.1142C24.8541 9.28784 26.4715 10.3541 27.6531 11.133C28.7406 11.8499 29.1837 12.2031 29.1837 12.8227C29.1837 13.4418 28.7406 13.795 27.6531 14.5118Z" fill="white"/>
<path id="Vector_2" d="M37.6089 14.5118C36.4278 15.2908 34.8099 16.357 34.8099 18.5306C34.8099 19.3074 35.4559 19.9369 36.2531 19.9369C37.0502 19.9369 37.6963 19.3074 37.6963 18.5306C37.6963 17.9116 38.1388 17.5583 39.2263 16.8415C40.4079 16.0626 42.0258 14.9958 42.0258 12.8221C42.0258 10.6485 40.4079 9.58228 39.2263 8.80334C38.1388 8.08649 37.6957 7.73328 37.6957 7.1142C37.6957 6.49512 38.1388 6.14191 39.2263 5.42505C40.4079 4.64612 42.0258 3.57935 42.0258 1.40625C42.0258 0.629517 41.3792 0 40.5826 0C39.7855 0 39.1395 0.629517 39.1395 1.40625C39.1395 2.02478 38.6964 2.37854 37.6089 3.0954C36.4273 3.87433 34.8093 4.94055 34.8093 7.1142C34.8093 9.28729 36.4273 10.3541 37.6089 11.1324C38.6964 11.8499 39.1395 12.2031 39.1395 12.8221C39.1395 13.4418 38.6969 13.795 37.6089 14.5118Z" fill="white"/>
<path id="Vector_3" d="M47.5646 14.5118C46.3836 15.2908 44.7656 16.3575 44.7656 18.5306C44.7656 19.3074 45.4117 19.9369 46.2088 19.9369C47.006 19.9369 47.652 19.3074 47.652 18.5306C47.652 17.9116 48.0951 17.5583 49.1826 16.8415C50.3636 16.0626 51.9816 14.9958 51.9816 12.8221C51.9816 10.6485 50.3636 9.58228 49.1826 8.80334C48.0951 8.08649 47.652 7.73328 47.652 7.1142C47.652 6.49512 48.0951 6.14191 49.1826 5.42505C50.3636 4.64612 51.9816 3.5799 51.9816 1.40625C51.9816 0.630066 51.335 0 50.5384 0C49.7412 0 49.0952 0.630066 49.0952 1.40625C49.0952 2.02533 48.6521 2.37854 47.5646 3.0954C46.3836 3.87433 44.7656 4.94055 44.7656 7.1142C44.7656 9.28784 46.3836 10.3541 47.5646 11.133C48.6521 11.8499 49.0952 12.2031 49.0952 12.8227C49.0952 13.4418 48.6521 13.795 47.5646 14.5118Z" fill="white"/>
<path id="Vector_4" d="M69.1319 32.2659H63.8524C64.0187 31.2656 64.1269 30.2471 64.1732 29.2128C65.8356 28.647 67.0319 27.1045 67.0319 25.2939C67.0319 23.0055 65.1208 21.1433 62.7717 21.1433H11.499C9.14986 21.1433 7.23932 23.0055 7.23932 25.2939C7.23932 27.1045 8.43503 28.647 10.0975 29.2128C10.1443 30.2471 10.2525 31.2656 10.4183 32.2653H5.13881C4.34167 32.2653 3.69562 32.8954 3.69562 33.6716C3.69562 34.4483 4.34167 35.0778 5.13881 35.0778H11.0497C13.038 42.0646 17.9093 47.8945 24.3321 51.2689L20.9175 57.5135C20.9152 57.5174 20.9135 57.5207 20.9113 57.5245L14.5336 69.1876H12.3378C11.5407 69.1876 10.8947 69.8177 10.8947 70.5939C10.8947 71.3706 11.5407 72.0001 12.3378 72.0001H18.4618C19.259 72.0001 19.905 71.3706 19.905 70.5939C19.905 69.8177 19.259 69.1876 18.4618 69.1876H17.8039L23.0501 59.5949H51.5644L56.8101 69.1876H55.8089C55.0123 69.1876 54.3657 69.8177 54.3657 70.5939C54.3657 71.3706 55.0123 72.0001 55.8089 72.0001H61.9328C62.73 72.0001 63.376 71.3706 63.376 70.5939C63.376 69.8177 62.73 69.1876 61.9328 69.1876H60.0809L53.7021 57.524C53.7004 57.5207 53.6988 57.5174 53.6971 57.5141L50.2041 51.1272C56.4955 47.7324 61.2603 41.9679 63.221 35.0784H69.1319C69.9284 35.0784 70.5751 34.4483 70.5751 33.6721C70.5751 32.8954 69.929 32.2659 69.1319 32.2659ZM24.588 56.7824L26.9456 52.4703C30.093 53.7211 33.5324 54.4121 37.1353 54.4121C40.8459 54.4121 44.384 53.6804 47.6069 52.3577L50.0265 56.7824H24.588ZM37.1353 51.5996C24.287 51.5996 13.7466 41.785 12.998 29.4451H61.2727C60.524 41.785 49.9842 51.5996 37.1353 51.5996ZM62.7717 26.6326H11.499C10.7419 26.6326 10.1257 26.0322 10.1257 25.2939C10.1257 24.5562 10.7419 23.9558 11.499 23.9558H62.7717C63.5294 23.9558 64.1455 24.5562 64.1455 25.2939C64.1455 26.0322 63.5294 26.6326 62.7717 26.6326Z" fill="white"/>
<path id="Vector_5" d="M37.1353 49.1246C44.6309 49.1246 51.49 45.4173 55.4841 39.2078C55.9075 38.5498 55.7034 37.6818 55.0275 37.2693C54.3521 36.8568 53.4614 37.0562 53.0386 37.7142C49.5755 43.0975 43.6308 46.3121 37.1353 46.3121C36.3382 46.3121 35.6921 46.9417 35.6921 47.7184C35.6921 48.4946 36.3382 49.1246 37.1353 49.1246Z" fill="white"/>
<path id="Vector_6" d="M55.2518 33.8561C55.4869 34.4049 56.0648 34.7592 56.6747 34.7213C57.2531 34.685 57.7611 34.3043 57.9494 33.7704C58.1512 33.1986 57.9387 32.5388 57.4358 32.184C56.9713 31.8555 56.3354 31.8258 55.8426 32.1126C55.2372 32.4652 54.9807 33.2211 55.2518 33.8561Z" fill="white"/>
</g>
<defs>
<clipPath id="clip0_1_445">
<rect width="73.8913" height="72" fill="white" transform="translate(0.231934)"/>
</clipPath>
</defs>
</svg>
