<svg width="23" height="22" viewBox="0 0 23 22" fill="none" xmlns="http://www.w3.org/2000/svg">
<g id="facebook-letter-logo" clip-path="url(#clip0_1_55)">
<g id="Group">
<path id="Facebook" d="M8.54117 4.91938C8.54117 5.44991 8.54117 7.8179 8.54117 7.8179H6.31342V11.3622H8.54117V21.8947H13.1175V11.3625H16.1884C16.1884 11.3625 16.476 9.66305 16.6154 7.80484C16.2157 7.80484 13.1348 7.80484 13.1348 7.80484C13.1348 7.80484 13.1348 5.74286 13.1348 5.38143C13.1348 5.01923 13.6337 4.53201 14.1269 4.53201C14.6191 4.53201 15.658 4.53201 16.6202 4.53201C16.6202 4.04945 16.6202 2.38208 16.6202 0.842163C15.3357 0.842163 13.8743 0.842163 13.2301 0.842163C8.42805 0.841918 8.54117 4.38977 8.54117 4.91938Z" fill="white"/>
</g>
</g>
<defs>
<clipPath id="clip0_1_55">
<rect width="22.0858" height="21.0527" fill="white" transform="translate(0.42395 0.842041)"/>
</clipPath>
</defs>
</svg>
