<svg width="75" height="72" viewBox="0 0 75 72" fill="none" xmlns="http://www.w3.org/2000/svg">
<g id="hunter">
<g id="Group">
<g id="Group_2">
<path id="Vector" d="M45.7167 30.3698C45.1189 30.3698 44.6343 30.8418 44.6343 31.4244V31.7057C44.6343 32.2883 45.1189 32.7604 45.7167 32.7604C46.3144 32.7604 46.799 32.2883 46.799 31.7057V31.4244C46.799 30.8418 46.3144 30.3698 45.7167 30.3698Z" fill="white"/>
</g>
</g>
<g id="Group_3">
<g id="Group_4">
<path id="Vector_2" d="M30.0366 30.3698C29.4389 30.3698 28.9543 30.8418 28.9543 31.4244V31.7057C28.9543 32.2883 29.4389 32.7604 30.0366 32.7604C30.6344 32.7604 31.119 32.2883 31.119 31.7057V31.4244C31.119 30.8418 30.6344 30.3698 30.0366 30.3698Z" fill="white"/>
</g>
</g>
<g id="Group_5">
<g id="Group_6">
<path id="Vector_3" d="M64.327 24.4605L57.4137 19.8488V18.9423C57.4137 9.20574 49.2844 1.28447 39.2922 1.28447H38.9591V1.05469C38.9591 0.472078 38.4745 0 37.8767 0C37.2789 0 36.7943 0.472078 36.7943 1.05469V1.28447H36.4614C30.5361 1.28447 24.9739 4.11652 21.5824 8.85994C21.2406 9.33778 21.3613 9.9952 21.8518 10.3282C22.3423 10.6609 23.017 10.5438 23.3586 10.0657C26.3455 5.88797 31.2438 3.39384 36.4614 3.39384H39.292C48.0906 3.39384 55.2488 10.369 55.2488 18.9423V19.3494H48.2316C48.2278 19.3494 48.2242 19.35 48.2205 19.35H46.8333C46.2355 19.35 45.7509 19.8221 45.7509 20.4047C45.7509 20.9873 46.2355 21.4594 46.8333 21.4594H55.9959L62.881 26.0522H57.937H54.0563H21.6971H17.8164H12.8726L19.7577 21.4594H42.505C43.1028 21.4594 43.5874 20.9873 43.5874 20.4047C43.5874 19.8221 43.1028 19.35 42.505 19.35H41.4959C41.4922 19.35 41.4886 19.3494 41.4848 19.3494H20.5046V18.9423C20.5046 17.0906 20.8349 15.2795 21.4865 13.5592C21.6935 13.0127 21.4066 12.4064 20.8459 12.2046C20.2851 12.0026 19.6626 12.2826 19.4557 12.8288C18.7153 14.7836 18.3399 16.8404 18.3399 18.9423V19.8488L11.4255 24.4612C10.6688 24.9673 10.3431 25.8809 10.6148 26.7348C10.8866 27.5881 11.6853 28.1614 12.6023 28.1614H16.7341V28.9491C16.7341 29.6083 16.8031 30.2621 16.9372 30.9032C15.141 31.7104 13.9241 33.491 13.9241 35.4781C13.9241 38.2548 16.2424 40.5139 19.0921 40.5139H22.7326C24.5268 43.7063 27.3252 46.2413 30.7185 47.7475V48.817L27.3319 49.0094C26.8102 49.039 26.3847 49.4276 26.3206 49.9328L26.219 50.7319C25.9203 50.8359 25.6275 50.951 25.341 51.0768C25.3131 51.0889 25.2856 51.1014 25.2579 51.1137C25.1408 51.1661 25.0248 51.2204 24.9099 51.2764C24.8421 51.3091 24.7744 51.3423 24.7073 51.3764C24.6496 51.4059 24.5924 51.4364 24.5353 51.4668C22.6402 52.4663 21.0479 53.9519 19.9301 55.8018C19.9031 55.8465 19.881 55.8931 19.8612 55.9405C18.8508 57.6613 18.2796 59.6392 18.2796 61.7068V70.9453C18.2796 71.5279 18.7642 72 19.362 72H21.7936H53.9594H56.3911C56.9888 72 57.4735 71.5279 57.4735 70.9453V61.7071C57.4735 58.6281 56.2598 55.7459 54.0551 53.5556C54.024 53.5247 53.9934 53.4933 53.9619 53.4628C53.9255 53.4275 53.8913 53.3908 53.8545 53.3558C53.8297 53.3322 53.8039 53.3104 53.7775 53.2897C53.6057 53.1297 53.4308 52.9727 53.2488 52.8221C52.7934 52.4448 52.1101 52.4992 51.7232 52.9433C51.3363 53.3873 51.392 54.053 51.8476 54.4299C52.1045 54.6425 52.3487 54.867 52.5805 55.1021C52.5896 55.1112 52.599 55.1202 52.608 55.1295C52.6796 55.2026 52.7496 55.2772 52.8188 55.3524C52.833 55.3679 52.847 55.3836 52.8612 55.3991C53.1578 55.7267 53.4312 56.0731 53.679 56.4375C51.7001 61.2696 51.2949 65.7849 52.4689 69.8906H40.5444C42.6808 67.6596 44.4343 65.0168 45.7115 62.0973L49.4819 65.2527C49.6827 65.4207 49.934 65.5073 50.1874 65.5073C50.362 65.5073 50.5378 65.4661 50.6986 65.3822C51.0926 65.1762 51.3162 64.7554 51.2614 64.323L49.4329 49.9328C49.3687 49.4276 48.9434 49.0393 48.4216 49.0096L45.0351 48.8173V47.7477C48.429 46.241 51.2273 43.7057 53.0209 40.5141H56.6614C59.5111 40.5141 61.8294 38.2551 61.8294 35.4783C61.8294 33.4911 60.6127 31.7105 58.8165 30.9033C58.9506 30.2621 59.0196 29.6083 59.0196 28.9492V28.1616H63.1514C64.0684 28.1616 64.8672 27.5882 65.139 26.7349C65.4104 25.8809 65.0847 24.9673 64.327 24.4605ZM18.8989 28.1614H20.6147V28.1616V32.4394C20.6147 32.598 20.6179 32.7607 20.6226 32.9266C20.6238 32.964 20.6249 33.0013 20.6262 33.0387C20.6281 33.0917 20.6291 33.1428 20.6314 33.1972C20.6316 33.2024 20.6319 33.2076 20.6322 33.2128L20.6356 33.2785C20.6385 33.3319 20.6413 33.3852 20.6452 33.4389C20.6459 33.4552 20.6472 33.4721 20.6482 33.4887C20.6495 33.5098 20.6508 33.5309 20.6522 33.5521C20.6567 33.6315 20.6629 33.7098 20.6694 33.7874C20.6604 33.7769 20.6511 33.7665 20.6423 33.7558C20.6003 33.7053 20.5599 33.6537 20.5193 33.6022C20.4863 33.5603 20.4526 33.5187 20.4206 33.4761C20.3808 33.4233 20.3427 33.3695 20.3043 33.3159C20.2734 33.2727 20.2421 33.2301 20.2122 33.1864C20.1745 33.1312 20.1386 33.075 20.1025 33.019C20.0742 32.9753 20.0452 32.932 20.0179 32.8875C19.9823 32.8298 19.9485 32.7707 19.9145 32.712C19.8889 32.6679 19.8625 32.6244 19.8377 32.5797C19.8036 32.5183 19.7717 32.4555 19.7395 32.3931C19.7172 32.3499 19.6938 32.3073 19.6723 32.2637C19.6392 32.1967 19.6085 32.1285 19.5775 32.0602C19.559 32.0199 19.5394 31.9801 19.5218 31.9395C19.4877 31.8613 19.4564 31.7818 19.4249 31.7024C19.4124 31.6707 19.3987 31.6396 19.3865 31.6077C19.344 31.4956 19.3039 31.3824 19.2666 31.268C19.0226 30.5191 18.8989 29.739 18.8989 28.9491V28.1614ZM19.0921 38.4047C17.4361 38.4047 16.0889 37.0919 16.0889 35.4783C16.0889 34.4115 16.6918 33.4471 17.6061 32.9369C17.6286 32.9858 17.6528 33.0339 17.6762 33.0825C17.6943 33.1201 17.712 33.158 17.7306 33.1954C17.7858 33.3065 17.8428 33.4166 17.9021 33.5254C17.908 33.5363 17.9133 33.5472 17.9193 33.558C17.9849 33.6774 18.0535 33.795 18.1242 33.9114C18.1444 33.9449 18.1656 33.9777 18.1862 34.0109C18.2382 34.0942 18.2913 34.1771 18.3459 34.2588C18.3713 34.2969 18.3968 34.3347 18.4226 34.3724C18.4782 34.4533 18.5352 34.5331 18.5931 34.6123C18.6165 34.6442 18.6393 34.6764 18.6629 34.7081C18.7442 34.8162 18.8273 34.9231 18.9132 35.0279C18.925 35.0423 18.9376 35.0563 18.9495 35.0708C19.0244 35.1612 19.1009 35.2502 19.179 35.3379C19.2087 35.3713 19.2391 35.404 19.2692 35.4369C19.3329 35.5065 19.3975 35.5752 19.4633 35.643C19.4959 35.6766 19.5284 35.71 19.5615 35.7432C19.6346 35.8165 19.7091 35.8885 19.7847 35.9596C19.8094 35.9828 19.8334 36.0066 19.8582 36.0295C19.9579 36.1215 20.0598 36.2116 20.1637 36.2998C20.1904 36.3225 20.218 36.3442 20.245 36.3666C20.3242 36.4324 20.4043 36.4974 20.4857 36.561C20.5235 36.5905 20.5617 36.6195 20.6 36.6484C20.6753 36.7055 20.7517 36.7615 20.8289 36.8165C20.8667 36.8435 20.9042 36.8706 20.9424 36.8972C21.0399 36.9647 21.1387 37.0306 21.2389 37.0949C21.2559 37.1059 21.2725 37.1174 21.2897 37.1284C21.2916 37.1296 21.2934 37.1309 21.2953 37.132C21.2953 37.1322 21.2955 37.1323 21.2955 37.1326C21.3526 37.3241 21.4144 37.5144 21.4784 37.7038C21.493 37.7467 21.5075 37.7896 21.5223 37.8323C21.5871 38.0188 21.6544 38.2043 21.7258 38.3882C21.728 38.3937 21.7297 38.3992 21.7319 38.4047H19.0921ZM21.0246 69.8906H20.4447V61.7071H20.4445C20.4445 60.8487 20.5664 60.0097 20.7925 59.2068C22.0406 63.0855 22.115 66.6055 21.0246 69.8906ZM54.9655 59.1926C55.1905 60.0015 55.309 60.8445 55.309 61.7071V69.8906H54.7291C53.637 66.6014 53.713 63.0768 54.9655 59.1926ZM28.2822 51.6649C28.2829 51.6592 28.2838 51.6534 28.2844 51.6475L28.3586 51.0643L30.7185 50.9302V51.0581C30.7185 51.2487 30.7714 51.4357 30.8719 51.5994L34.749 57.9185L33.6248 57.2662C33.2251 57.0344 32.7184 57.0772 32.3659 57.3722L26.9846 61.8754L28.2822 51.6649ZM32.8833 50.7669V49.8122V48.545C32.8934 48.548 32.9036 48.5505 32.9137 48.5535C33.0889 48.6046 33.265 48.6529 33.4416 48.6986C33.4833 48.7094 33.5252 48.7197 33.5669 48.7301C33.7241 48.7696 33.8818 48.807 34.04 48.842C34.0685 48.8483 34.097 48.8552 34.1256 48.8614C34.3051 48.9002 34.4853 48.9357 34.666 48.9689C34.7092 48.9767 34.7523 48.9842 34.7955 48.9918C34.961 49.0209 35.1268 49.0479 35.2934 49.0722C35.315 49.0755 35.3367 49.0791 35.3583 49.0822C35.5416 49.1082 35.7255 49.1307 35.9099 49.1511C35.9545 49.156 35.9991 49.1605 36.0437 49.1652C36.2193 49.1832 36.3955 49.1992 36.5722 49.212C36.5846 49.213 36.597 49.2141 36.6096 49.2151C36.7963 49.2282 36.9836 49.2376 37.1714 49.2449C37.217 49.2467 37.2626 49.2483 37.3084 49.2497C37.4974 49.2556 37.6868 49.2597 37.8767 49.2597C38.0666 49.2597 38.256 49.2556 38.445 49.2497C38.4906 49.2483 38.5364 49.2467 38.582 49.2449C38.7697 49.2376 38.9571 49.2283 39.1438 49.2151C39.1562 49.2143 39.1686 49.213 39.1812 49.212C39.3578 49.1992 39.5341 49.1832 39.7097 49.1652C39.7543 49.1605 39.7987 49.156 39.8432 49.1511C40.0278 49.1307 40.2119 49.1082 40.3953 49.0822C40.4166 49.0793 40.4376 49.0756 40.4588 49.0725C40.626 49.048 40.7924 49.0209 40.9585 48.9918C41.0012 48.9843 41.0441 48.9769 41.0866 48.969C41.2678 48.9358 41.4484 48.9002 41.6283 48.8613C41.6561 48.8552 41.6837 48.8486 41.7115 48.8424C41.8707 48.8071 42.0293 48.7696 42.1875 48.7298C42.2286 48.7195 42.2699 48.7094 42.3109 48.6987C42.4878 48.6529 42.664 48.6046 42.8395 48.5533C42.8496 48.5504 42.8599 48.548 42.87 48.545V49.8122V50.7669L37.8767 58.9056L32.8833 50.7669ZM23.2846 69.8908V69.8906C24.4578 65.7882 24.054 61.2768 22.0791 56.449C22.8981 55.2434 23.9912 54.2191 25.2859 53.4749C25.3103 53.461 25.3348 53.4472 25.3593 53.4336C25.4371 53.3897 25.5159 53.3471 25.5951 53.3052C25.6693 53.2664 25.7441 53.2284 25.8196 53.1914C25.8506 53.1761 25.8815 53.1605 25.9126 53.1456L24.4924 64.3231C24.4376 64.7556 24.6611 65.1763 25.0551 65.3822C25.2159 65.4663 25.3917 65.5075 25.5663 65.5075C25.8197 65.5075 26.071 65.4209 26.2717 65.2528L30.0422 62.0975C31.3194 65.017 33.0729 67.6596 35.2092 69.8908H23.2846ZM37.8767 69.516C35.2576 67.1182 33.1644 64.0808 31.7697 60.6516L33.1856 59.4665L37.3228 61.8671C37.3257 61.8688 37.3289 61.8697 37.3317 61.8713C37.3476 61.8803 37.3642 61.8879 37.3805 61.8962C37.397 61.9045 37.4136 61.9124 37.4305 61.9199C37.4465 61.9269 37.4621 61.9346 37.4784 61.941C37.4916 61.9462 37.5054 61.9495 37.5188 61.9542C37.5253 61.9564 37.5318 61.9584 37.5383 61.9605C37.553 61.9653 37.5674 61.9708 37.5824 61.975C37.5996 61.9798 37.6171 61.9833 37.6345 61.9872C37.653 61.9914 37.6715 61.9948 37.6902 61.9979C37.7067 62.0007 37.7227 62.0048 37.7394 62.0069C37.7467 62.0077 37.7539 62.0075 37.7611 62.0083C37.7739 62.0096 37.7869 62.0099 37.7998 62.0108C37.8177 62.0121 37.8356 62.0139 37.8535 62.0142C37.8612 62.0144 37.8689 62.0158 37.8768 62.0158C37.8848 62.0158 37.8924 62.0145 37.9002 62.0142C37.9183 62.0138 37.936 62.012 37.9539 62.0108C37.9667 62.0099 37.9797 62.0097 37.9924 62.0083C37.9997 62.0076 38.007 62.0079 38.0141 62.0069C38.0307 62.0048 38.0468 62.0007 38.0632 61.9979C38.0818 61.9947 38.1002 61.9913 38.1189 61.9872C38.1363 61.9833 38.1538 61.9798 38.171 61.975C38.186 61.9709 38.2004 61.9653 38.2153 61.9605C38.2216 61.9584 38.2281 61.9564 38.2345 61.9542C38.2479 61.9495 38.2616 61.946 38.2749 61.941C38.2912 61.9346 38.3068 61.927 38.3228 61.92C38.3397 61.9125 38.3564 61.9047 38.373 61.8962C38.3893 61.8881 38.4058 61.8805 38.4216 61.8715C38.4245 61.8698 38.4277 61.869 38.4306 61.8673L42.5678 59.4667L43.9837 60.6517C42.589 64.0808 40.4958 67.1182 37.8767 69.516ZM47.3952 51.0642L48.7689 61.8754L43.3875 57.3722C43.1863 57.204 42.9351 57.1177 42.6822 57.1177C42.4917 57.1177 42.3002 57.1666 42.1286 57.2662L41.0044 57.9185L44.8815 51.5994C44.9818 51.4358 45.0349 51.2488 45.0349 51.0581V50.9302L47.3952 51.0642ZM52.9738 32.4394C52.9738 32.5818 52.971 32.7241 52.9668 32.8662C52.966 32.8982 52.9648 32.9311 52.9636 32.9638C52.9586 33.1027 52.9522 33.2415 52.9433 33.38C52.9424 33.389 52.942 33.3982 52.9414 33.4072C52.932 33.5486 52.9204 33.6898 52.9068 33.8307C52.9053 33.8455 52.9043 33.8593 52.9029 33.8743C52.8879 34.0252 52.8707 34.1757 52.8511 34.3259L52.8483 34.3455C52.8089 34.6431 52.76 34.9388 52.7021 35.2327C52.6727 35.3812 52.641 35.5299 52.6069 35.6778C52.605 35.6857 52.6036 35.6937 52.6017 35.7016C52.564 35.8639 52.5238 36.0253 52.481 36.1848C52.4484 36.3059 52.4141 36.4265 52.3783 36.5467C52.1272 37.389 51.7986 38.2087 51.3988 38.989C49.7526 42.2107 46.9637 44.7279 43.5453 46.0773C41.7463 46.7893 39.8391 47.1502 37.8767 47.1502C37.6313 47.1502 37.3869 47.1445 37.1434 47.1333C37.0115 47.1272 36.8799 47.1191 36.7486 47.1097C35.5467 47.0237 34.3699 46.8001 33.2305 46.4406C33.1463 46.414 33.0626 46.3859 32.9789 46.3579C32.9485 46.3478 32.9179 46.3382 32.8874 46.3278C32.6593 46.2497 32.4327 46.1663 32.2078 46.0773C32.2076 46.0772 32.2073 46.0772 32.207 46.077C28.7894 44.7279 26.0005 42.2107 24.3537 38.9881C24.2967 38.8768 24.241 38.7645 24.1869 38.6516C23.8079 37.861 23.5006 37.033 23.272 36.1851C23.2293 36.0255 23.1889 35.8639 23.1512 35.7013C23.1498 35.695 23.1487 35.6887 23.1472 35.6825C23.1129 35.5333 23.0808 35.3834 23.0511 35.2333C22.9934 34.9398 22.9444 34.6442 22.905 34.347L22.902 34.325C22.8824 34.175 22.8651 34.0244 22.8502 33.8735C22.8489 33.8605 22.8479 33.8472 22.8466 33.8342C22.8329 33.6922 22.8212 33.5499 22.8117 33.4073C22.8111 33.3982 22.8107 33.389 22.8098 33.38C22.8008 33.2415 22.7943 33.1027 22.7894 32.9639C22.7883 32.9311 22.7871 32.8982 22.7863 32.8662C22.7821 32.724 22.7793 32.5818 22.7793 32.4394V28.1616H52.9738V32.4394ZM55.1009 33.5521C55.1023 33.5312 55.1035 33.5101 55.1049 33.4891C55.1059 33.4725 55.1071 33.4567 55.1079 33.4389C55.1117 33.3863 55.1146 33.3343 55.1173 33.282L55.1209 33.2137C55.1212 33.2082 55.1215 33.2025 55.1218 33.1971C55.1241 33.1426 55.1251 33.0916 55.127 33.0386C55.1283 33.0012 55.1296 32.9639 55.1306 32.9265C55.1354 32.7606 55.1385 32.5979 55.1385 32.4392V28.1614H56.8545V28.9491H56.8546C56.8546 29.739 56.7309 30.5191 56.4869 31.2681C56.4497 31.3824 56.4097 31.4954 56.3671 31.6073C56.3543 31.641 56.3397 31.674 56.3264 31.7076C56.2957 31.7853 56.2649 31.8631 56.2316 31.9395C56.2143 31.9792 56.1951 32.0182 56.1771 32.0577C56.1456 32.1266 56.1144 32.1958 56.0809 32.2637C56.0599 32.3063 56.0371 32.348 56.0153 32.3902C55.9824 32.4537 55.95 32.5174 55.9154 32.5799C55.891 32.6239 55.8649 32.6669 55.8396 32.7104C55.8053 32.7696 55.7714 32.829 55.7354 32.8873C55.708 32.9317 55.679 32.9752 55.6506 33.019C55.6145 33.0749 55.5787 33.1311 55.5412 33.186C55.511 33.2301 55.4793 33.2733 55.4481 33.3169C55.4101 33.3699 55.3725 33.423 55.3332 33.4752C55.3003 33.5188 55.266 33.5616 55.2321 33.6045C55.1922 33.6548 55.1527 33.7054 55.1115 33.7548C55.1025 33.7657 55.0929 33.7763 55.0837 33.7871C55.0903 33.7092 55.0964 33.6312 55.1009 33.5521ZM59.6645 35.4781C59.6645 37.092 58.3173 38.4047 56.6612 38.4047H54.0216C54.0238 38.3991 54.0257 38.3932 54.028 38.3875C54.0991 38.2042 54.1663 38.0192 54.2308 37.8333C54.2459 37.7899 54.2606 37.7463 54.2754 37.7027C54.3392 37.5141 54.4008 37.3247 54.4576 37.1339C54.4578 37.1333 54.4581 37.1326 54.4582 37.132C54.4601 37.1308 54.462 37.1295 54.4638 37.1284C54.481 37.1175 54.4975 37.1059 54.5146 37.0949C54.6148 37.0306 54.7137 36.9647 54.8111 36.8972C54.8493 36.8708 54.8868 36.8435 54.9247 36.8165C55.0019 36.7613 55.0782 36.7054 55.1535 36.6484C55.1918 36.6195 55.23 36.5905 55.2678 36.561C55.3492 36.4974 55.4293 36.4324 55.5086 36.3666C55.5356 36.3442 55.5631 36.3225 55.5898 36.2998C55.6936 36.2116 55.7953 36.1216 55.8952 36.0297C55.9203 36.0066 55.9444 35.9826 55.9692 35.9592C56.0446 35.8883 56.1189 35.8165 56.1918 35.7435C56.225 35.7102 56.2576 35.6766 56.2903 35.6428C56.3559 35.5753 56.4202 35.5068 56.4837 35.4375C56.5142 35.4043 56.5448 35.3713 56.5746 35.3377C56.6523 35.2505 56.7284 35.1619 56.8028 35.072C56.8152 35.0571 56.8281 35.0426 56.8403 35.0276C56.9261 34.923 57.0091 34.8162 57.0902 34.7082C57.1141 34.6763 57.1372 34.6438 57.1607 34.6115C57.2185 34.5327 57.275 34.4534 57.3303 34.373C57.3566 34.3349 57.3824 34.2965 57.4081 34.2581C57.4622 34.1769 57.5147 34.095 57.5663 34.0121C57.5873 33.9782 57.609 33.9448 57.6296 33.9107C57.6999 33.7947 57.7683 33.6776 57.8338 33.5586C57.8406 33.5464 57.8467 33.5339 57.8535 33.5215C57.9119 33.4142 57.968 33.3058 58.0223 33.1962C58.0414 33.158 58.0596 33.1193 58.078 33.0806C58.1011 33.0327 58.1251 32.9851 58.1473 32.9368C59.0616 33.447 59.6645 34.4114 59.6645 35.4781Z" fill="white"/>
</g>
</g>
<g id="Group_7">
<g id="Group_8">
<path id="Vector_4" d="M26.7671 16.4431C26.7526 16.3758 26.7324 16.3095 26.705 16.2448C26.6776 16.1816 26.6444 16.1197 26.6054 16.0634C26.5664 16.0058 26.5217 15.9509 26.4712 15.9031C26.4207 15.8539 26.3658 15.8103 26.3067 15.7723C26.2475 15.7342 26.1854 15.7005 26.1205 15.6753C26.0541 15.6487 25.9863 15.6275 25.917 15.6148C25.777 15.5867 25.6341 15.5867 25.4942 15.6148C25.4249 15.6275 25.3571 15.6486 25.2921 15.6753C25.2257 15.7006 25.1637 15.7344 25.1045 15.7723C25.0453 15.8103 24.9905 15.8539 24.94 15.9031C24.8909 15.9509 24.8447 16.0056 24.8058 16.0634C24.7668 16.1197 24.7336 16.1816 24.7062 16.2448C24.6788 16.3095 24.6586 16.3758 24.6441 16.4431C24.6311 16.5106 24.6239 16.5795 24.6239 16.6484C24.6239 16.7173 24.6311 16.7862 24.6441 16.8552C24.6586 16.9227 24.6788 16.9887 24.7062 17.052C24.7336 17.1153 24.7668 17.177 24.8058 17.2348C24.8447 17.2925 24.8909 17.3459 24.94 17.3953C24.9905 17.4431 25.0453 17.488 25.1045 17.5261C25.1637 17.564 25.2257 17.5964 25.2921 17.623C25.3571 17.6498 25.4249 17.6694 25.4942 17.6836C25.5649 17.6962 25.6356 17.7033 25.7063 17.7033C25.777 17.7033 25.8477 17.6962 25.917 17.6836C25.9863 17.6694 26.0541 17.6498 26.1205 17.623C26.1854 17.5964 26.2475 17.5639 26.3067 17.5261C26.3658 17.488 26.4205 17.4431 26.4712 17.3953C26.5217 17.3459 26.5664 17.2926 26.6054 17.2348C26.6444 17.1772 26.6776 17.1153 26.705 17.052C26.7324 16.9887 26.7526 16.9227 26.7671 16.8552C26.7815 16.7864 26.7887 16.7175 26.7887 16.6484C26.7887 16.5795 26.7815 16.5108 26.7671 16.4431Z" fill="white"/>
</g>
</g>
<g id="Group_9">
<g id="Group_10">
<path id="Vector_5" d="M34.8807 16.4431C34.8677 16.3758 34.8461 16.3095 34.8187 16.2448C34.7927 16.1816 34.7595 16.1197 34.7189 16.0634C34.68 16.0058 34.6352 15.9509 34.5847 15.9031C34.5357 15.8539 34.4794 15.8103 34.4202 15.7723C34.3625 15.7342 34.299 15.7005 34.234 15.6753C34.1676 15.6487 34.0998 15.6275 34.0305 15.6148C33.892 15.5867 33.7477 15.5867 33.6077 15.6148C33.5384 15.6275 33.4706 15.6486 33.4056 15.6753C33.3407 15.7006 33.2772 15.7344 33.2195 15.7723C33.1589 15.8103 33.104 15.8539 33.0535 15.9031C33.0044 15.9509 32.9597 16.0056 32.9193 16.0634C32.8803 16.1197 32.8471 16.1816 32.8197 16.2448C32.7937 16.3095 32.7721 16.3758 32.7591 16.4431C32.7447 16.5106 32.7374 16.5795 32.7374 16.6484C32.7374 16.7173 32.7447 16.7862 32.7591 16.8552C32.7721 16.9227 32.7937 16.9887 32.8197 17.052C32.8471 17.1153 32.8803 17.177 32.9193 17.2348C32.9597 17.2925 33.0044 17.3459 33.0535 17.3953C33.104 17.4431 33.1589 17.488 33.2195 17.5261C33.2772 17.564 33.3407 17.5964 33.4056 17.623C33.4706 17.6498 33.5384 17.6694 33.6077 17.6836C33.6784 17.6962 33.7491 17.7033 33.8198 17.7033C33.8906 17.7033 33.9613 17.6962 34.0305 17.6836C34.1 17.6694 34.1676 17.6498 34.234 17.623C34.299 17.5964 34.3625 17.5639 34.4202 17.5261C34.4794 17.488 34.5357 17.4431 34.5847 17.3953C34.6352 17.3459 34.68 17.2926 34.7189 17.2348C34.7593 17.1772 34.7925 17.1153 34.8187 17.052C34.8461 16.9887 34.8677 16.9227 34.8807 16.8552C34.8952 16.7864 34.9024 16.7175 34.9024 16.6484C34.9024 16.5795 34.8952 16.5108 34.8807 16.4431Z" fill="white"/>
</g>
</g>
<g id="Group_11">
<g id="Group_12">
<path id="Vector_6" d="M42.9957 16.4431C42.9812 16.3758 42.961 16.3095 42.9336 16.2448C42.9062 16.1816 42.873 16.1197 42.834 16.0634C42.7936 16.0058 42.7489 15.9509 42.6998 15.9031C42.6493 15.8539 42.5944 15.8103 42.5353 15.7723C42.4761 15.7342 42.4126 15.7005 42.3477 15.6753C42.2827 15.6487 42.2149 15.6275 42.1456 15.6148C42.0056 15.5867 41.8613 15.5867 41.7228 15.6148C41.6535 15.6275 41.5857 15.6486 41.5193 15.6753C41.4543 15.7006 41.3908 15.7344 41.3331 15.7723C41.2739 15.8103 41.2176 15.8539 41.1686 15.9031C41.1181 15.9509 41.0733 16.0056 41.0329 16.0634C40.9939 16.1197 40.9608 16.1816 40.9348 16.2448C40.9074 16.3095 40.8857 16.3758 40.8727 16.4431C40.8583 16.5106 40.8511 16.5795 40.8511 16.6484C40.8511 16.7173 40.8583 16.7862 40.8727 16.8552C40.8857 16.9227 40.9074 16.9887 40.9348 17.052C40.9608 17.1153 40.9939 17.177 41.0329 17.2348C41.0733 17.2925 41.1181 17.3459 41.1686 17.3953C41.2176 17.4431 41.2739 17.488 41.3331 17.5261C41.3908 17.564 41.4543 17.5964 41.5193 17.623C41.5857 17.6498 41.6535 17.6694 41.7228 17.6836C41.792 17.6962 41.8628 17.7033 41.9335 17.7033C42.0042 17.7033 42.0749 17.6962 42.1456 17.6836C42.2149 17.6694 42.2827 17.6498 42.3477 17.623C42.4126 17.5964 42.4761 17.5639 42.5353 17.5261C42.5944 17.488 42.6493 17.4431 42.6998 17.3953C42.7489 17.3459 42.7936 17.2926 42.834 17.2348C42.873 17.1772 42.9062 17.1153 42.9336 17.052C42.961 16.9887 42.9812 16.9227 42.9957 16.8552C43.0086 16.7864 43.0159 16.7175 43.0159 16.6484C43.0159 16.5795 43.0086 16.5108 42.9957 16.4431Z" fill="white"/>
</g>
</g>
<g id="Group_13">
<g id="Group_14">
<path id="Vector_7" d="M51.1093 16.4431C51.0949 16.3758 51.0747 16.3095 51.0472 16.2448C51.0198 16.1816 50.9866 16.1197 50.9477 16.0634C50.9087 16.0058 50.8625 15.9509 50.8134 15.9031C50.7629 15.8539 50.7081 15.8103 50.6489 15.7723C50.5898 15.7342 50.5263 15.7005 50.4613 15.6753C50.3964 15.6487 50.3285 15.6275 50.2593 15.6148C50.1193 15.5867 49.975 15.5867 49.8364 15.6148C49.7671 15.6275 49.6993 15.6486 49.6329 15.6753C49.568 15.7006 49.5059 15.7344 49.4467 15.7723C49.3876 15.8103 49.3327 15.8539 49.2822 15.9031C49.2317 15.9509 49.187 16.0056 49.148 16.0634C49.109 16.1197 49.0758 16.1816 49.0484 16.2448C49.021 16.3095 49.0008 16.3758 48.9864 16.4431C48.9719 16.5106 48.9647 16.5795 48.9647 16.6484C48.9647 16.7173 48.9719 16.7862 48.9864 16.8552C49.0008 16.9227 49.021 16.9887 49.0484 17.052C49.0758 17.1153 49.109 17.177 49.148 17.2348C49.187 17.2925 49.2317 17.3459 49.2822 17.3953C49.3327 17.4431 49.3876 17.488 49.4467 17.5261C49.5059 17.564 49.568 17.5964 49.6329 17.623C49.6993 17.6498 49.7671 17.6694 49.8364 17.6836C49.9057 17.6962 49.9764 17.7033 50.0471 17.7033C50.1178 17.7033 50.19 17.6962 50.2593 17.6836C50.3285 17.6694 50.3964 17.6498 50.4613 17.623C50.5263 17.5964 50.5898 17.5639 50.6489 17.5261C50.7081 17.488 50.7629 17.4431 50.8134 17.3953C50.8625 17.3459 50.9087 17.2926 50.9477 17.2348C50.9866 17.1772 51.0198 17.1153 51.0472 17.052C51.0747 16.9887 51.0949 16.9227 51.1093 16.8552C51.1237 16.7864 51.1295 16.7175 51.1295 16.6484C51.1295 16.5795 51.1237 16.5108 51.1093 16.4431Z" fill="white"/>
</g>
</g>
<g id="Group_15">
<g id="Group_16">
<path id="Vector_8" d="M38.9374 64.2696C38.9244 64.2036 38.9027 64.1361 38.8768 64.0728C38.8494 64.0096 38.8162 63.9477 38.7772 63.8914C38.7368 63.8338 38.692 63.7789 38.6415 63.7311C38.3904 63.485 38.0166 63.3724 37.6645 63.4427C37.5967 63.4555 37.5274 63.4764 37.4624 63.5018C37.3975 63.5285 37.334 63.561 37.2763 63.5988C37.2171 63.6382 37.1608 63.6818 37.1118 63.731C37.0612 63.7788 37.0165 63.8335 36.9761 63.8913C36.9371 63.9475 36.9039 64.0094 36.878 64.0727C36.8504 64.136 36.8289 64.2035 36.8159 64.2696C36.8015 64.3383 36.7943 64.4072 36.7943 64.4763C36.7943 64.5453 36.8015 64.614 36.8159 64.683C36.8289 64.7491 36.8505 64.8166 36.878 64.8799C36.9039 64.943 36.9371 65.005 36.9761 65.0613C37.0165 65.1188 37.0612 65.1738 37.1118 65.2216C37.1608 65.2708 37.2171 65.3144 37.2763 65.3524C37.334 65.3918 37.3975 65.4242 37.4624 65.4508C37.5274 65.4761 37.5967 65.4972 37.6645 65.5099C37.7352 65.5241 37.8059 65.531 37.8766 65.531C38.161 65.531 38.4409 65.4185 38.6415 65.2216C38.692 65.1738 38.7368 65.1189 38.7772 65.0613C38.8162 65.005 38.8494 64.943 38.8768 64.8799C38.9027 64.8166 38.9244 64.749 38.9374 64.683C38.9518 64.6141 38.959 64.5453 38.959 64.4763C38.959 64.4072 38.9518 64.3385 38.9374 64.2696Z" fill="white"/>
</g>
</g>
<g id="Group_17">
<g id="Group_18">
<path id="Vector_9" d="M48.8238 38.6849C48.6326 38.1331 48.0183 37.8374 47.452 38.0238C47.0949 38.1415 46.8421 38.4233 46.7522 38.7537C46.0119 38.4917 45.3013 37.8317 44.5789 37.1202L44.4003 36.9437C43.7246 36.2752 43.0261 35.5839 42.1622 35.0741C40.7873 34.263 39.1165 34.917 37.8768 36.1004C36.6371 34.9171 34.9664 34.2632 33.5912 35.0741C32.7275 35.5839 32.0288 36.2752 31.3531 36.9437L31.1746 37.1202C30.4523 37.8319 29.7418 38.4914 29.0013 38.7537C28.9115 38.4231 28.6587 38.1414 28.3014 38.0237C27.7351 37.8372 27.1207 38.1331 26.9293 38.6849C26.7134 39.307 26.8357 39.9113 27.2647 40.3427C27.684 40.7643 28.2838 40.9043 28.803 40.9043C29.0743 40.9043 29.3237 40.8661 29.5141 40.8098C30.78 40.4356 31.789 39.5146 32.7138 38.6033L32.8955 38.4238C33.5046 37.8211 34.0799 37.2518 34.7123 36.8787C35.123 36.6359 36.2468 37.2579 36.9728 38.3286C37.0127 38.3878 37.0589 38.4435 37.1116 38.4946C37.1635 38.5453 37.22 38.5897 37.2799 38.6282C37.28 38.6284 37.28 38.6284 37.28 38.6284C37.2819 38.6295 37.2836 38.6304 37.2854 38.6315C37.3134 38.6493 37.3421 38.6659 37.3715 38.681C37.3865 38.6887 37.402 38.695 37.4173 38.7021C37.4334 38.7094 37.4493 38.7173 37.4658 38.7239C37.4875 38.7326 37.5096 38.7398 37.5319 38.7471C37.5424 38.7506 37.5528 38.7545 37.5633 38.7576C37.5874 38.7648 37.6117 38.7703 37.6361 38.7758C37.6456 38.7779 37.655 38.7805 37.6646 38.7824C37.6881 38.787 37.7117 38.7901 37.7353 38.7931C37.7466 38.7945 37.7577 38.7964 37.7691 38.7976C37.79 38.7995 37.811 38.8004 37.8319 38.8012C37.8465 38.8018 37.8609 38.8028 37.8756 38.8028C37.8931 38.8028 37.9104 38.8016 37.9279 38.8009C37.9459 38.8001 37.9639 38.7995 37.982 38.7978C37.9963 38.7964 38.0104 38.7942 38.0247 38.7922C38.0453 38.7894 38.066 38.7867 38.0866 38.7828C38.0993 38.7804 38.1117 38.777 38.1243 38.7741C38.1456 38.7691 38.167 38.7644 38.1882 38.7582C38.2022 38.7541 38.2158 38.7489 38.2296 38.7443C38.2485 38.7379 38.2674 38.7319 38.2861 38.7244C38.3063 38.7164 38.3259 38.7069 38.3455 38.6977C38.3572 38.6922 38.369 38.6874 38.3806 38.6815C38.4754 38.633 38.5639 38.5704 38.6418 38.4944C38.6943 38.4433 38.7405 38.3876 38.7804 38.3286C39.5063 37.258 40.6295 36.6359 41.0407 36.8787C41.6731 37.2518 42.2485 37.8211 42.8577 38.4238L43.0395 38.6033C43.9643 39.5146 44.9732 40.4356 46.239 40.8098C46.4293 40.866 46.6788 40.9043 46.9502 40.9043C47.4695 40.9043 48.0691 40.7643 48.4884 40.3427C48.9175 39.9113 49.0397 39.307 48.8238 38.6849Z" fill="white"/>
</g>
</g>
</g>
</svg>
