<svg width="21" height="20" viewBox="0 0 21 20" fill="none" xmlns="http://www.w3.org/2000/svg">
<g id="instagram" clip-path="url(#clip0_1_48)">
<g id="Group">
<path id="Vector" d="M14.6135 0.842041H6.57939C3.31425 0.842041 0.657867 3.37416 0.657867 6.48656V14.1449C0.657867 17.2573 3.31425 19.7894 6.57939 19.7894H14.6135C17.8787 19.7894 20.5351 17.2573 20.5351 14.1449V6.48656C20.535 3.37416 17.8786 0.842041 14.6135 0.842041ZM18.5354 14.1449C18.5354 16.2095 16.7795 17.8833 14.6135 17.8833H6.57939C4.41342 17.8833 2.65751 16.2095 2.65751 14.1449V6.48656C2.65751 4.42188 4.41342 2.74815 6.57939 2.74815H14.6135C16.7795 2.74815 18.5354 4.42188 18.5354 6.48656V14.1449Z" fill="white"/>
<path id="Vector_2" d="M10.5965 5.41516C7.76173 5.41516 5.45551 7.6135 5.45551 10.3156C5.45551 13.0177 7.76173 15.2161 10.5965 15.2161C13.4312 15.2161 15.7374 13.0177 15.7374 10.3156C15.7374 7.61347 13.4312 5.41516 10.5965 5.41516ZM10.5965 13.31C8.86155 13.31 7.45515 11.9694 7.45515 10.3156C7.45515 8.66187 8.86158 7.32127 10.5965 7.32127C12.3314 7.32127 13.7378 8.66187 13.7378 10.3156C13.7378 11.9693 12.3313 13.31 10.5965 13.31Z" fill="white"/>
<path id="Vector_3" d="M15.7473 6.62634C16.4277 6.62634 16.9792 6.10061 16.9792 5.45208C16.9792 4.80356 16.4277 4.27783 15.7473 4.27783C15.067 4.27783 14.5155 4.80356 14.5155 5.45208C14.5155 6.10061 15.067 6.62634 15.7473 6.62634Z" fill="white"/>
</g>
</g>
<defs>
<clipPath id="clip0_1_48">
<rect width="19.8772" height="18.9474" fill="white" transform="translate(0.657867 0.842041)"/>
</clipPath>
</defs>
</svg>
