<svg width="20" height="20" viewBox="0 0 20 20" fill="none" xmlns="http://www.w3.org/2000/svg">
<g id="twitter" clip-path="url(#clip0_1_53)">
<path id="Vector" d="M19.6049 4.26852C19.1632 4.45519 18.7048 4.60247 18.2344 4.70908C18.7527 4.23955 19.1424 3.65227 19.3623 2.99675C19.4251 2.80961 19.2118 2.64779 19.0346 2.74799C18.3801 3.11801 17.6752 3.3956 16.9393 3.57313C16.8966 3.58344 16.8525 3.58866 16.8083 3.58866C16.6743 3.58866 16.544 3.54121 16.4415 3.4551C15.6585 2.79732 14.6515 2.43506 13.606 2.43506C13.1536 2.43506 12.6969 2.50227 12.2484 2.63485C10.8589 3.04567 9.78675 4.13825 9.45037 5.48623C9.32417 5.99185 9.29001 6.49792 9.34874 6.99036C9.35548 7.04695 9.32742 7.08645 9.31012 7.10498C9.27973 7.13745 9.23665 7.15607 9.19192 7.15607C9.18693 7.15607 9.18179 7.15584 9.1767 7.15537C6.13509 6.88601 3.39231 5.48919 1.45356 3.22228C1.3547 3.10665 1.16511 3.12083 1.08631 3.24967C0.706659 3.87054 0.506024 4.58066 0.506024 5.30325C0.506024 6.41065 0.972767 7.45426 1.7835 8.21506C1.44256 8.138 1.11258 8.01665 0.806056 7.85436C0.65776 7.77583 0.475299 7.87677 0.473215 8.03845C0.451988 9.68357 1.46243 11.1474 2.97611 11.8066C2.94563 11.8073 2.91515 11.8076 2.88461 11.8076C2.64468 11.8076 2.40173 11.7855 2.16262 11.742C1.99562 11.7116 1.85532 11.8626 1.90717 12.0169C2.39849 13.479 3.71919 14.5568 5.29965 14.8015C3.98796 15.6408 2.46047 16.0836 0.870656 16.0836L0.37503 16.0833C0.222324 16.0833 0.0931717 16.1782 0.0542562 16.3192C0.0159224 16.458 0.0865323 16.6045 0.216751 16.6767C2.00822 17.6705 4.05164 18.1958 6.127 18.1958C7.94362 18.1958 9.64291 17.8521 11.1777 17.1744C12.5847 16.5531 13.8281 15.665 14.8732 14.5348C15.8468 13.4819 16.6082 12.2664 17.136 10.9222C17.6392 9.64088 17.9052 8.27368 17.9052 6.96837V6.9062C17.9051 6.69661 18.0046 6.4994 18.1781 6.36515C18.8365 5.85561 19.4098 5.25581 19.882 4.58242C20.0067 4.40461 19.8101 4.18176 19.6049 4.26852Z" fill="white"/>
</g>
<defs>
<clipPath id="clip0_1_53">
<rect width="19.8772" height="18.9474" fill="white" transform="translate(0.0438538 0.842041)"/>
</clipPath>
</defs>
</svg>
