<svg width="75" height="72" viewBox="0 0 75 72" fill="none" xmlns="http://www.w3.org/2000/svg">
<g clip-path="url(#clip0_1_318)">
<path d="M64.5044 5.11527L26.4034 0.0418798C23.8823 -0.295098 21.5464 1.43268 21.2012 3.89228L20.3702 9.82004C20.2808 10.4555 20.7373 11.0417 21.3902 11.1281C22.0389 11.2159 22.6439 10.7704 22.7327 10.1342L23.5637 4.20714C23.7314 3.0175 24.8635 2.17982 26.0809 2.34422L64.182 7.41728C65.4029 7.58066 66.2608 8.68078 66.0938 9.87007L58.6274 63.112C58.4597 64.3016 57.3255 65.1383 56.1102 64.9749L53.5646 64.6362C52.9076 64.5467 52.3109 64.9936 52.2222 65.6294C52.1328 66.2649 52.5893 66.8511 53.2415 66.9375L55.787 67.2762C55.998 67.3041 56.208 67.3181 56.4155 67.3181C58.6875 67.3181 60.6741 65.6791 60.9895 63.4258L68.4559 10.1842C68.8011 7.72533 67.0283 5.45157 64.5044 5.11527Z" fill="white"/>
<path d="M49.5922 9.26001H11.1369C8.58931 9.26001 6.51712 11.2798 6.51712 13.7616V67.4984C6.51712 69.9808 8.59 71.9999 11.1369 71.9999H49.5922C52.1391 71.9999 54.2113 69.9808 54.212 67.4984V13.7616C54.212 11.2792 52.1391 9.26001 49.5922 9.26001ZM51.8275 67.4987C51.8275 68.6996 50.8246 69.6765 49.5925 69.6765H11.1369C9.90451 69.6765 8.90195 68.6993 8.90195 67.4987V13.7619C8.90195 12.561 9.90486 11.5841 11.1369 11.5841H49.5922C50.8246 11.5841 51.8271 12.5614 51.8271 13.7619V67.4987H51.8275Z" fill="white"/>
<path d="M42.2878 56.8961H17.2483C16.5902 56.8961 16.0561 57.4165 16.0561 58.0578C16.0561 58.6991 16.5902 59.2195 17.2483 59.2195H42.2878C42.9466 59.2195 43.4801 58.6991 43.4801 58.0578C43.4801 57.4165 42.9463 56.8961 42.2878 56.8961Z" fill="white"/>
<path d="M30.3644 62.7054H17.2483C16.5902 62.7054 16.0561 63.2258 16.0561 63.8671C16.0561 64.5084 16.5902 65.0288 17.2483 65.0288H30.3644C31.0232 65.0288 31.5566 64.5084 31.5566 63.8671C31.5566 63.2258 31.0225 62.7054 30.3644 62.7054Z" fill="white"/>
<path d="M49.4419 20.879H11.2867C10.6286 20.879 10.0945 21.3995 10.0945 22.0408V45.2776C10.0945 45.9189 10.6286 46.4394 11.2867 46.4394H49.4423C50.1011 46.4394 50.6345 45.9189 50.6345 45.2776V22.0408C50.6345 21.3995 50.1004 20.879 49.4419 20.879ZM48.2497 44.1156H12.479V23.2025H48.2497V44.1156Z" fill="white"/>
<path d="M27.9795 20.879H11.2867C10.6286 20.879 10.0945 21.3995 10.0945 22.0408V35.9828C10.0945 36.6241 10.6286 37.1445 11.2867 37.1445H27.9798C28.6387 37.1445 29.1721 36.6241 29.1721 35.9828V22.0408C29.1721 21.3995 28.638 20.879 27.9795 20.879ZM26.7872 34.8211H12.479V23.2025H26.7872V34.8211Z" fill="white"/>
<path d="M23.4023 27.8983C23.2427 27.4197 22.7854 27.0953 22.2684 27.0953H21.3479C20.7251 27.0953 20.177 26.7073 19.9845 26.13L19.7002 25.2773C19.5405 24.7987 19.0826 24.4744 18.5663 24.4744C18.05 24.4744 17.592 24.7984 17.4324 25.2773L17.148 26.1307C16.9556 26.7079 16.4075 27.096 15.7846 27.096H14.8638C14.3475 27.096 13.8895 27.42 13.7299 27.8989C13.5703 28.3775 13.7453 28.9021 14.1634 29.1978L14.9082 29.7248C15.4119 30.0815 15.6211 30.7088 15.4287 31.2864L15.1443 32.1391C14.985 32.6177 15.1597 33.1422 15.5778 33.438C15.9956 33.7338 16.5622 33.7338 16.9793 33.438L17.7244 32.9104C18.2295 32.553 18.9062 32.5543 19.4099 32.9104L20.1547 33.4373C20.3632 33.5854 20.6091 33.6592 20.8551 33.6592C21.1006 33.6592 21.3469 33.585 21.5551 33.4373C21.9729 33.1415 22.1482 32.617 21.9886 32.1384L21.7036 31.2857C21.5114 30.7085 21.7207 30.0808 22.2248 29.7241L22.9695 29.1972C23.3866 28.9014 23.562 28.3768 23.4023 27.8983ZM19.2779 30.382C19.0424 30.3391 18.8045 30.317 18.5659 30.317C18.328 30.317 18.0895 30.3391 17.854 30.382C17.7943 29.9195 17.6448 29.4722 17.4146 29.0634C17.8474 28.8646 18.2386 28.5882 18.5659 28.2485C18.8939 28.5882 19.2845 28.865 19.7173 29.0634C19.4871 29.4725 19.3379 29.9198 19.2779 30.382Z" fill="white"/>
<path d="M49.4419 25.5264H27.9795C27.3214 25.5264 26.7873 26.0468 26.7873 26.6881C26.7873 27.3294 27.3214 27.8498 27.9795 27.8498H49.4419C50.1007 27.8498 50.6342 27.3294 50.6342 26.6881C50.6345 26.0468 50.1004 25.5264 49.4419 25.5264Z" fill="white"/>
<path d="M49.4419 30.1736H27.9795C27.3214 30.1736 26.7873 30.6941 26.7873 31.3354C26.7873 31.9766 27.3214 32.4971 27.9795 32.4971H49.4419C50.1007 32.4971 50.6342 31.9766 50.6342 31.3354C50.6342 30.6941 50.1004 30.1736 49.4419 30.1736Z" fill="white"/>
<path d="M49.4419 34.821H27.9795C27.3214 34.821 26.7873 35.3415 26.7873 35.9828C26.7873 36.6241 27.3214 37.1445 27.9795 37.1445H49.4419C50.1007 37.1445 50.6342 36.6241 50.6342 35.9828C50.6342 35.3415 50.1004 34.821 49.4419 34.821Z" fill="white"/>
<path d="M49.4419 39.4684H11.2867C10.6286 39.4684 10.0945 39.9888 10.0945 40.6301C10.0945 41.2714 10.6286 41.7918 11.2867 41.7918H49.4423C50.1011 41.7918 50.6345 41.2714 50.6345 40.6301C50.6345 39.9888 50.1004 39.4684 49.4419 39.4684Z" fill="white"/>
</g>
<defs>
<clipPath id="clip0_1_318">
<rect width="73.8913" height="72" fill="white" transform="translate(0.562561)"/>
</clipPath>
</defs>
</svg>
