<svg width="27" height="26" viewBox="0 0 27 26" fill="none" xmlns="http://www.w3.org/2000/svg">
<g id="vk-social-network-logo" clip-path="url(#clip0_1_58)">
<g id="Group">
<path id="Vector" d="M26.4004 19.126C26.3683 19.0601 26.3384 19.0054 26.3106 18.9616C25.8508 18.1721 24.9721 17.2032 23.675 16.0544L23.6476 16.0281L23.6339 16.0152L23.62 16.002H23.6061C23.0174 15.4671 22.6446 15.1074 22.4885 14.9232C22.2029 14.5725 22.1389 14.2174 22.295 13.8576C22.4053 13.5858 22.8196 13.0118 23.5369 12.1347C23.9143 11.6699 24.2131 11.2974 24.4338 11.0167C26.0254 8.99977 26.7154 7.7109 26.5037 7.14962L26.4215 7.01846C26.3663 6.93949 26.2237 6.86725 25.994 6.80137C25.7637 6.73563 25.4694 6.72476 25.1106 6.76857L21.1366 6.79474C21.0722 6.77299 20.9803 6.77502 20.8605 6.80137C20.7409 6.82772 20.681 6.84095 20.681 6.84095L20.6119 6.87389L20.557 6.91346C20.511 6.93963 20.4604 6.98565 20.4051 7.05144C20.3502 7.117 20.3042 7.19394 20.2675 7.28161C19.8348 8.34266 19.3429 9.32917 18.7908 10.2411C18.4504 10.7849 18.1378 11.2561 17.8523 11.6551C17.5672 12.054 17.328 12.3479 17.135 12.5363C16.9416 12.7248 16.7672 12.8759 16.6105 12.99C16.454 13.1042 16.3346 13.1524 16.2519 13.1348C16.169 13.1171 16.091 13.0996 16.0171 13.0821C15.8884 13.0032 15.7848 12.8958 15.7068 12.7599C15.6284 12.624 15.5756 12.4529 15.548 12.2468C15.5205 12.0406 15.5043 11.8632 15.4997 11.7141C15.4954 11.5652 15.4973 11.3545 15.5067 11.0827C15.5162 10.8107 15.5205 10.6267 15.5205 10.5302C15.5205 10.197 15.5274 9.83526 15.541 9.44504C15.555 9.05482 15.5662 8.74564 15.5756 8.51787C15.585 8.28987 15.5894 8.04864 15.5894 7.79433C15.5894 7.54002 15.5731 7.34058 15.541 7.19583C15.5093 7.05126 15.4607 6.91093 15.3965 6.77488C15.332 6.63897 15.2376 6.53384 15.1136 6.45921C14.9895 6.38466 14.8351 6.32551 14.6514 6.28156C14.1638 6.17638 13.5429 6.11948 12.7884 6.11064C11.0774 6.09313 9.978 6.19845 9.49043 6.42645C9.29725 6.52278 9.12243 6.65441 8.96613 6.82091C8.8005 7.0139 8.7774 7.11921 8.89697 7.13654C9.44901 7.21536 9.83982 7.40393 10.0698 7.70205L10.1527 7.86003C10.2172 7.97401 10.2816 8.1758 10.346 8.46512C10.4103 8.75444 10.4518 9.07449 10.4701 9.42509C10.516 10.0653 10.516 10.6134 10.4701 11.0693C10.424 11.5254 10.3805 11.8805 10.339 12.1348C10.2975 12.3891 10.2355 12.5952 10.1527 12.753C10.0698 12.9108 10.0147 13.0073 9.98703 13.0423C9.95944 13.0773 9.93643 13.0994 9.91816 13.108C9.79859 13.1517 9.67423 13.1739 9.54553 13.1739C9.41663 13.1739 9.26032 13.1125 9.07637 12.9897C8.89247 12.8668 8.70161 12.6981 8.50379 12.4833C8.30597 12.2683 8.08287 11.968 7.8344 11.5822C7.58612 11.1964 7.32852 10.7405 7.06173 10.2143L6.841 9.83277C6.70301 9.5873 6.51452 9.22989 6.27533 8.76084C6.03599 8.29162 5.82444 7.83773 5.64054 7.39928C5.56703 7.21513 5.45659 7.07494 5.30942 6.97847L5.24036 6.93889C5.19444 6.90388 5.12074 6.8667 5.01963 6.82708C4.91837 6.7875 4.81272 6.75912 4.70223 6.74166L0.921315 6.76783C0.534953 6.76783 0.272804 6.85127 0.134769 7.0179L0.0795263 7.09673C0.0519291 7.14064 0.0380096 7.21075 0.0380096 7.30727C0.0380096 7.40374 0.0656069 7.52215 0.12085 7.66234C0.672795 8.89887 1.27302 10.0914 1.92153 11.2401C2.57004 12.3889 3.13359 13.3142 3.61183 14.0153C4.09017 14.7169 4.57773 15.3791 5.07453 16.0015C5.57133 16.6241 5.90018 17.0231 6.06107 17.1984C6.22216 17.3741 6.34869 17.5054 6.44067 17.593L6.78571 17.9087C7.00648 18.1192 7.33069 18.3713 7.75847 18.665C8.18635 18.9588 8.66005 19.2482 9.1798 19.5334C9.69966 19.8181 10.3044 20.0505 10.9945 20.2302C11.6844 20.4102 12.3559 20.4823 13.0091 20.4475H14.596C14.9179 20.421 15.1617 20.3246 15.3274 20.1581L15.3823 20.0921C15.4192 20.0398 15.4538 19.9585 15.4857 19.8491C15.518 19.7395 15.534 19.6187 15.534 19.4874C15.5246 19.1104 15.5547 18.7706 15.6235 18.4681C15.6923 18.1657 15.7707 17.9377 15.8584 17.7841C15.946 17.6307 16.0449 17.5013 16.1549 17.3963C16.2652 17.2911 16.3438 17.2274 16.3899 17.2055C16.4358 17.1834 16.4723 17.1684 16.4999 17.1595C16.7207 17.0893 16.9805 17.1572 17.2798 17.3635C17.5788 17.5696 17.8593 17.824 18.1216 18.1264C18.3838 18.4291 18.6989 18.7687 19.0668 19.1457C19.4349 19.5228 19.7568 19.8032 20.0327 19.9876L20.3085 20.1454C20.4928 20.2507 20.732 20.3472 21.0264 20.4349C21.3203 20.5225 21.5778 20.5444 21.7989 20.5006L25.3313 20.4481C25.6807 20.4481 25.9526 20.393 26.1454 20.2836C26.3387 20.174 26.4535 20.0532 26.4905 19.9219C26.5274 19.7904 26.5294 19.6412 26.4975 19.4744C26.4648 19.3081 26.4325 19.1917 26.4004 19.126Z" fill="white"/>
</g>
</g>
<defs>
<clipPath id="clip0_1_58">
<rect width="26.5029" height="25.2632" fill="white" transform="translate(0.0380096 0.684204)"/>
</clipPath>
</defs>
</svg>
