<svg width="75" height="72" viewBox="0 0 75 72" fill="none" xmlns="http://www.w3.org/2000/svg">
<g clip-path="url(#clip0_1_356)">
<path d="M37.3119 9.60706C21.6935 9.60706 8.98653 21.9888 8.98653 37.2074C8.98653 52.426 21.6935 64.8076 37.3119 64.8076C52.9302 64.8076 65.6372 52.4258 65.6372 37.2072C65.6372 21.9886 52.9302 9.60706 37.3119 9.60706ZM37.3119 62.4075C23.052 62.4075 11.4496 51.1034 11.4496 37.2072C11.4496 23.3111 23.052 12.007 37.3119 12.007C51.573 12.007 63.1741 23.3111 63.1741 37.2072C63.1741 51.1034 51.573 62.4075 37.3119 62.4075Z" fill="white"/>
<path d="M49.1987 12.1572C49.0855 12.1068 48.966 12.0719 48.8428 12.0563L48.5584 12.0191C48.1199 11.9579 47.6853 12.1366 47.418 12.4786C47.1495 12.8206 47.0892 13.2743 47.2591 13.6714C48.1051 15.6419 49.1126 19.6247 47.8244 20.5391L44.9697 21.6514C42.8084 22.4938 41.2936 24.4282 41.0165 26.7071L40.998 26.845C40.9303 27.3226 40.53 27.4522 40.3613 27.4859C40.0559 27.5459 39.6482 27.4739 39.4143 27.0922L38.1913 25.1062C37.7417 24.3753 36.9117 23.9409 36.0497 23.9926C35.1815 24.0357 34.4143 24.5386 34.0448 25.3066C32.9451 27.595 31.5645 30.8974 31.2296 33.6322C31.1261 34.4806 31.2812 35.3374 31.6778 36.1115L33.0978 38.8787C33.6015 39.8579 34.3737 40.6883 35.333 41.2788C36.2173 41.8224 37.8565 42.9192 38.9008 44.148C40.0892 45.5483 41.6902 46.4533 43.4095 46.7233C43.3405 48.9709 43.492 52.6657 45.0622 54.2977C45.6115 54.8676 46.2999 55.1809 47.0622 55.2061C47.2002 55.2241 47.4428 55.2482 47.7568 55.2482C48.6707 55.2482 50.1966 55.0465 51.5919 53.9233C53.5353 52.3586 54.5315 49.6057 54.5537 45.7404L56.3173 38.0051L56.9873 39.0923C57.5317 39.9767 58.4417 40.5983 59.4811 40.7975C60.5205 40.9968 61.6042 40.7544 62.4528 40.1352L65.145 38.1671C65.4553 37.9403 65.6376 37.5851 65.6376 37.2071C65.6373 26.4949 59.184 16.662 49.1987 12.1572ZM60.9746 38.2154C60.679 38.4301 60.3157 38.5105 59.9548 38.4422C59.5927 38.3739 59.2885 38.165 59.0988 37.8566L57.8217 35.7818C57.4006 35.0966 56.6074 34.7365 55.7946 34.8651C54.9856 34.9935 54.3475 35.5803 54.169 36.3604L52.1198 45.3472C52.1 45.4324 52.0902 45.5201 52.0902 45.6077C52.0902 48.7241 51.3858 50.9513 50.0533 52.0493C48.8353 53.0526 47.4424 52.8353 47.3981 52.8294C47.2392 52.8006 47.1185 52.9254 46.8599 52.6566C46.0927 51.8585 45.7047 49.0733 45.9166 45.8813C45.9413 45.5021 45.802 45.1241 45.5349 44.8469C45.2664 44.5673 44.8846 44.4077 44.4906 44.4077C43.11 44.4077 41.7639 43.756 40.7973 42.6196C39.599 41.2072 37.8785 40.0072 36.6471 39.25C36.0682 38.8936 35.6028 38.3944 35.301 37.8063L33.881 35.039C33.7 34.6862 33.6286 34.2974 33.6754 33.9159C33.9771 31.4607 35.3392 28.2974 36.1864 26.513L37.3034 28.3262C38.0423 29.5262 39.4352 30.1154 40.8564 29.8359C42.2346 29.5611 43.2493 28.5158 43.4389 27.1706L43.4647 26.981C43.6335 25.583 44.5609 24.395 45.8847 23.8789L48.854 22.7221C48.9156 22.6981 48.9771 22.6681 49.0349 22.6345C51.3748 21.2498 51.0719 17.9352 50.4574 15.5088C58.0843 19.9093 62.9538 27.9086 63.1668 36.6135L60.9746 38.2154Z" fill="white"/>
<path d="M31.5053 53.8527L30.759 53.1266C29.8538 52.2434 28.7971 51.5474 27.6199 51.0553L23.8218 49.4689C22.291 48.8294 21.3021 47.3677 21.3021 45.7442V43.9381C21.3021 42.8329 20.7455 41.7985 19.8132 41.1685C18.8809 40.5397 17.6901 40.3968 16.6284 40.7833L10.7146 42.9433C10.121 43.1606 9.79228 43.7809 9.95723 44.3785C12.7293 54.4382 21.2898 62.2491 31.7665 64.2759C31.8477 64.2915 31.929 64.2987 32.0079 64.2987C32.5486 64.2987 33.0387 63.9519 33.1927 63.4286L33.6434 61.8902C34.4807 59.0332 33.6617 55.9528 31.5053 53.8527ZM31.2751 61.2304L31.142 61.6816C22.4437 59.5997 15.3538 53.1279 12.6505 44.7999L17.4929 43.0311C17.8045 42.9159 18.1382 42.9567 18.4104 43.1414C18.6826 43.3251 18.839 43.6155 18.839 43.9382V45.7443C18.839 48.3292 20.4141 50.6571 22.8514 51.6748L26.6495 53.2612C27.5386 53.6332 28.3354 54.1588 29.0178 54.8236L29.7641 55.5496C31.2874 57.0339 31.8674 59.2107 31.2751 61.2304Z" fill="white"/>
<path d="M24.4017 13.77C24.0162 13.3068 23.3401 13.1903 22.8142 13.4963C14.6812 18.228 9.52721 26.5393 9.02843 35.7278C9.00621 36.1346 9.19715 36.5246 9.53587 36.7634C9.74888 36.9145 10.0014 36.9913 10.2576 36.9913C10.4091 36.9913 10.5605 36.9638 10.7034 36.9109L18.3426 33.9732C20.1727 33.2592 21.1173 31.2744 20.4941 29.4528C20.3426 29.0075 20.4596 28.5252 20.7995 28.1928L24.3488 24.7343C25.5606 23.5548 26.2281 21.9851 26.2281 20.3147V18.7535C26.2281 16.9536 25.5791 15.1836 24.4017 13.77ZM23.765 20.3136C23.765 21.3433 23.3537 22.3092 22.6061 23.0364L19.0568 26.4948C18.0531 27.474 17.7083 28.8973 18.1579 30.21C18.3697 30.8281 18.0483 31.5013 17.4287 31.7425L11.6627 33.9697C12.6196 26.7108 16.7748 20.2152 23.0888 16.1603C23.5297 16.9584 23.765 17.8511 23.765 18.7524V20.3136Z" fill="white"/>
<path d="M37.3119 0.00708008C36.0386 0.00708008 34.754 0.0706426 33.4942 0.196643C32.8181 0.263861 32.3255 0.854205 32.3945 1.51303C32.4598 2.13108 32.9955 2.59064 33.6186 2.59064C33.6605 2.59064 33.7036 2.58825 33.7455 2.58347C34.9215 2.46703 36.1211 2.40713 37.312 2.40713C37.9918 2.40713 38.5435 1.86952 38.5435 1.20717C38.5435 0.54483 37.9916 0.00708008 37.3119 0.00708008Z" fill="white"/>
<path d="M3.31424 41.6542C2.99285 39.8013 2.82904 37.9018 2.82904 36.007C2.82904 35.6062 2.8364 35.2066 2.85127 34.807C2.87465 34.1447 2.34269 33.5902 1.6628 33.5663C0.989121 33.5316 0.41401 34.0619 0.389476 34.7244C0.373312 35.1502 0.365952 35.5774 0.365952 36.007C0.365952 38.035 0.540866 40.0702 0.88449 42.055C0.986667 42.6406 1.50766 43.0546 2.09749 43.0546C2.16647 43.0546 2.23546 43.0498 2.3056 43.0378C2.97553 42.9274 3.42753 42.3081 3.31424 41.6542Z" fill="white"/>
<path d="M8.42273 54.3601C7.13685 52.4424 6.05071 50.3916 5.19475 48.264C4.94595 47.6472 4.23171 47.3423 3.59873 47.5848C2.96575 47.8259 2.65286 48.522 2.90167 49.1399C3.8191 51.4199 4.98289 53.6172 6.35984 55.6715C6.59623 56.0244 6.99037 56.2152 7.39186 56.2152C7.62335 56.2152 7.85744 56.1516 8.06554 56.0209C8.63445 55.6585 8.79464 54.9144 8.42273 54.3601Z" fill="white"/>
<path d="M5.5925 19.9536C4.97914 19.6692 4.24398 19.9224 3.95087 20.52C2.86588 22.734 2.01368 25.0645 1.41764 27.4452C1.25643 28.0896 1.66038 28.7388 2.32165 28.8959C2.42022 28.9187 2.51865 28.9295 2.61476 28.9295C3.16895 28.9295 3.67262 28.5611 3.81059 28.0139C4.36723 25.7928 5.16156 23.6183 6.17381 21.5532C6.46693 20.9544 6.20701 20.2392 5.5925 19.9536Z" fill="white"/>
<path d="M14.765 8.99136C14.3179 8.49214 13.5409 8.43941 13.0272 8.87619C11.1319 10.489 9.3992 12.2962 7.87822 14.2462C7.46691 14.773 7.57154 15.5266 8.11346 15.9274C8.33629 16.0931 8.59751 16.1722 8.85728 16.1722C9.22919 16.1722 9.59619 16.0078 9.83879 15.6982C11.2587 13.8767 12.877 12.1895 14.6468 10.6846C15.1591 10.249 15.2121 9.49058 14.765 8.99136Z" fill="white"/>
<path d="M31.3032 69.1011C28.9892 68.7039 26.7109 68.0739 24.5335 67.2267C23.9005 66.9808 23.185 67.2795 22.9326 67.8964C22.6802 68.5108 22.988 69.2091 23.6198 69.4552C25.9536 70.3637 28.3956 71.0392 30.8759 71.4641C30.9473 71.476 31.0188 71.4821 31.0902 71.4821C31.6776 71.4821 32.1974 71.0717 32.3032 70.4909C32.4203 69.838 31.9732 69.2163 31.3032 69.1011Z" fill="white"/>
<path d="M46.791 69.5907C46.6334 68.9451 45.9671 68.5491 45.3082 68.7003C43.0323 69.2271 40.6838 69.5283 38.3268 69.5943C37.6471 69.6123 37.1114 70.1655 37.131 70.8278C37.1508 71.4782 37.6974 71.993 38.3613 71.993C38.3724 71.993 38.3847 71.993 38.3983 71.9919C40.9228 71.9212 43.4389 71.5996 45.8773 71.0355C46.5386 70.882 46.9474 70.2351 46.791 69.5907Z" fill="white"/>
<path d="M27.6481 2.47393C27.4424 1.84267 26.7491 1.49476 26.1013 1.69388C23.7047 2.43667 21.3771 3.42554 19.1838 4.63154C18.5914 4.95793 18.3832 5.68988 18.7171 6.26715C18.9436 6.6571 19.3611 6.87676 19.7909 6.87676C19.9954 6.87676 20.2035 6.82642 20.3943 6.72193C22.4399 5.59637 24.6123 4.67359 26.8476 3.98115C27.4954 3.78076 27.8537 3.1052 27.6481 2.47393Z" fill="white"/>
<path d="M18.297 64.0406C16.3413 62.7793 14.51 61.3154 12.8524 59.6907C12.3734 59.2214 11.5925 59.2179 11.111 59.6859C10.6294 60.1539 10.627 60.9135 11.1061 61.3839C12.882 63.1239 14.8438 64.6923 16.9373 66.0435C17.1467 66.178 17.3831 66.2428 17.6159 66.2428C18.015 66.2428 18.4065 66.0544 18.643 65.7041C19.0187 65.1518 18.8635 64.4067 18.297 64.0406Z" fill="white"/>
<path d="M56.8392 65.1734C56.4857 64.607 55.7283 64.4246 55.147 64.769C54.1348 65.3667 53.0781 65.9186 52.0066 66.4118C51.3921 66.695 51.1273 67.409 51.418 68.009C51.6285 68.4434 52.0707 68.6978 52.5325 68.6978C52.7086 68.6978 52.8873 68.6605 53.0584 68.5826C54.2075 68.0546 55.3392 67.463 56.4242 66.8223C57.0054 66.4777 57.1913 65.7397 56.8392 65.1734Z" fill="white"/>
<path d="M73.9982 53.2705C73.5796 52.7461 72.8049 52.6524 72.2704 53.0593L61.1866 61.4593C60.8873 61.6872 60.7112 62.0366 60.7112 62.4073V66.0073C60.7112 66.6696 61.263 67.2073 61.9427 67.2073C62.6225 67.2073 63.1742 66.6696 63.1742 66.0073V62.9941L73.7815 54.9541C74.3183 54.5474 74.4156 53.7937 73.9982 53.2705Z" fill="white"/>
<path d="M62.333 61.2684L58.6385 60.0685C57.9906 59.8561 57.2949 60.1993 57.0805 60.8269C56.8651 61.4556 57.2136 62.1348 57.8589 62.3449L61.5534 63.5449C61.6827 63.5869 61.8145 63.6073 61.9427 63.6073C62.4586 63.6073 62.9389 63.2894 63.1114 62.7865C63.3268 62.1576 62.9783 61.4784 62.333 61.2684Z" fill="white"/>
<path d="M71.7061 63.1597L69.243 57.1597C69.1433 56.9161 68.9635 56.7109 68.7331 56.5765L62.5755 52.9765C61.9917 52.6358 61.2356 52.8193 60.8858 53.3881C60.536 53.9569 60.7245 54.6937 61.3082 55.0345L67.11 58.427L69.4191 64.0526C69.6125 64.5218 70.0743 64.8073 70.5631 64.8073C70.7158 64.8073 70.8709 64.7797 71.02 64.7197C71.652 64.4737 71.9585 63.7752 71.7061 63.1597Z" fill="white"/>
</g>
<defs>
<clipPath id="clip0_1_356">
<rect width="73.8913" height="72" fill="white" transform="translate(0.365952)"/>
</clipPath>
</defs>
</svg>
