<svg width="27" height="58" viewBox="0 0 27 58" fill="none" xmlns="http://www.w3.org/2000/svg">
<path fill-rule="evenodd" clip-rule="evenodd" d="M15.3261 57.4344C12.9539 53.7871 11.577 49.3637 11.162 44.7936C10.8246 41.5344 10.8916 38.2093 11.2051 34.8865C11.8225 35.2365 12.5046 35.466 13.1781 35.6007C14.498 35.8609 15.806 35.7285 17.0301 35.4189C18.2553 35.0995 19.3853 34.5501 20.3905 33.8052C21.385 33.0489 22.2932 32.1364 22.8829 30.838C21.4825 30.7022 20.3083 30.7869 19.184 30.9324C18.0637 31.0733 17.0261 31.3216 16.0192 31.5727C15.0134 31.825 14.0484 32.1477 13.0625 32.475C12.5267 32.65 11.9926 32.8336 11.4047 33.0307C11.492 32.3108 11.5861 31.5909 11.6921 30.8738C11.8316 29.9664 11.9903 29.0618 12.1593 28.1578C12.8782 28.6652 13.7258 28.976 14.5604 29.1425C15.8803 29.4033 17.1877 29.2704 18.4118 28.9607C19.6376 28.6414 20.7675 28.0919 21.7722 27.347C22.7667 26.5913 23.6749 25.6782 24.2646 24.3804C22.8642 24.2446 21.6906 24.3293 20.5657 24.4742C19.4459 24.6157 18.4084 24.864 17.4009 25.1151C16.3957 25.3668 15.4307 25.6896 14.4447 26.0174C13.8075 26.2242 13.1753 26.4453 12.4473 26.685C12.7126 25.3878 13.0058 24.0946 13.3267 22.8065C14.2593 23.4895 15.336 23.894 16.4478 24.0389C17.8074 24.2509 19.2175 24.0719 20.5124 23.6128C21.813 23.1616 22.9969 22.4008 23.9363 21.4127C24.8588 20.42 25.6145 19.2138 25.7807 17.7438C24.3752 18.1035 23.2769 18.474 22.2025 18.8257L19.188 19.8638L16.208 20.9212C15.6881 21.1388 15.1466 21.2917 14.5734 21.5309C14.2423 21.6701 13.9016 21.7906 13.5455 21.9354C13.9356 20.4229 14.362 18.9177 14.8189 17.4205C15.7102 18.2478 16.9405 18.6706 18.1714 18.7274C19.5934 18.762 20.9716 18.3433 22.1453 17.6915C23.3263 17.0353 24.2952 16.1244 25.0476 15.0664C25.7829 13.9999 26.3527 12.7959 26.4372 11.3532C25.0748 11.7584 23.9981 12.2385 22.9866 12.7328C21.9769 13.2164 21.0799 13.7499 20.2028 14.2232L17.6271 15.6477C16.8702 16.0227 16.0759 16.375 15.0202 16.7756C15.4715 15.3312 15.9557 13.8954 16.4586 12.4652C17.0414 12.938 17.7382 13.1323 18.4135 13.1942C19.2021 13.2522 19.9987 13.1113 20.7097 12.788C21.4162 12.459 22.0648 11.9925 22.5348 11.364C23.015 10.7504 23.3461 10.0043 23.3847 9.11567C22.9129 9.13612 22.562 9.24124 22.1957 9.30715C21.8317 9.37192 21.5295 9.48727 21.2143 9.56455C20.6156 9.76739 20.0656 9.94467 19.5537 10.1941C19.0338 10.4299 18.5309 10.6879 17.9951 11.0078C17.5812 11.2561 17.1622 11.53 16.6678 11.8766C17.0539 10.7975 17.457 9.72421 17.876 8.65656C18.4027 8.78554 18.9703 8.71452 19.4726 8.56849C20.1439 8.36678 20.746 8.00426 21.25 7.55879C21.7677 7.12014 22.1714 6.58148 22.4996 6.00817C22.647 5.71043 22.7854 5.40815 22.8886 5.09052C22.9742 4.75983 23.0604 4.43595 23.0768 4.07742C22.7429 4.2297 22.4786 4.4172 22.2133 4.59846C21.9463 4.77688 21.6985 4.9604 21.4683 5.15416C20.9887 5.51952 20.5634 5.90817 20.1342 6.27352C19.7124 6.64853 19.3008 7.0173 18.8671 7.3781C18.6346 7.57072 18.4033 7.76505 18.1499 7.95881C18.261 7.68096 19.4499 4.81154 19.9301 3.75297C19.4323 4.67289 18.9561 5.60475 18.4872 6.54114C18.439 6.11783 18.4226 5.72918 18.4044 5.34224C18.3789 4.77801 18.3744 4.22458 18.3676 3.65922C18.3483 3.09557 18.3494 2.51884 18.2961 1.91711C18.2842 1.61653 18.253 1.30914 18.2049 0.990944C18.1595 0.671615 18.1209 0.350012 18.0087 0C17.7547 0.253986 17.5744 0.535815 17.3873 0.821052C17.2223 1.11197 17.0925 1.41766 16.9723 1.72733C16.7699 2.35633 16.6434 3.01829 16.6672 3.69672C16.678 4.37004 16.8152 5.06041 17.118 5.69339C17.3691 6.20534 17.7371 6.71217 18.2491 7.00991C18.0331 7.44629 16.6718 10.3589 16.2641 11.2817C16.2046 10.4606 16.1366 9.83274 16.043 9.23783C15.9444 8.62133 15.8191 8.0679 15.6671 7.51731C15.5305 6.96388 15.3128 6.42637 15.0843 5.836C14.942 5.54508 14.8365 5.23826 14.6528 4.91608C14.4691 4.59221 14.3245 4.25527 14.0376 3.87912C13.3822 4.47914 13.0228 5.21155 12.8601 5.97408C12.6803 6.73831 12.7387 7.53663 12.9394 8.29064C13.1475 9.04521 13.5501 9.74751 14.1 10.3174C14.6437 10.8612 15.3371 11.3169 16.2142 11.3959C15.5753 12.8431 14.9635 14.3039 14.3784 15.7761C14.1278 14.9335 13.9532 14.2818 13.7644 13.6516C13.5484 12.8453 13.3097 12.1118 13.0001 11.3629C12.69 10.6146 12.3475 9.84524 11.8696 9.05941C11.3916 8.26677 10.8332 7.4622 9.96173 6.57126C9.19235 7.573 8.91851 8.64747 8.82723 9.70773C8.75125 10.7708 8.91341 11.8351 9.31709 12.8425C9.7253 13.8442 10.3614 14.8034 11.2663 15.5256C12.0487 16.1307 13.029 16.5659 14.07 16.5415C14.0416 16.6148 14.0104 16.6864 13.9821 16.7597C13.4435 18.1529 12.9349 19.5592 12.4535 20.9752C12.271 20.6763 12.093 20.4013 11.9484 20.0984C11.8072 19.845 11.6672 19.6087 11.526 19.3865C11.4052 19.1376 11.2822 18.9058 11.1541 18.6876C10.6818 17.7779 10.2072 16.9773 9.76782 16.0983C9.31255 15.2346 8.84367 14.3522 8.29371 13.413C7.74262 12.4675 7.14447 11.4919 6.29005 10.3737C5.4997 11.5658 5.27008 12.8874 5.27972 14.1818C5.30126 15.4818 5.64654 16.7762 6.26114 17.9603C6.85985 19.149 7.82313 20.1956 8.96897 20.9206C9.26322 21.0962 9.56315 21.257 9.86478 21.4019C10.1857 21.5252 10.5168 21.6224 10.8417 21.7082C11.0083 21.7445 11.1665 21.7888 11.3344 21.8138C11.5095 21.8258 11.6785 21.8434 11.8548 21.84C11.9574 21.8417 12.0589 21.8377 12.1604 21.8366C11.6677 23.3275 11.2125 24.8333 10.7918 26.3509C10.2055 25.5992 9.64763 24.9958 9.13849 24.3696L7.08721 22.0497C6.40515 21.303 5.71741 20.549 4.95598 19.7547C4.1849 18.9569 3.38095 18.1416 2.30598 17.2029C1.78664 18.5575 1.87622 19.9473 2.21526 21.228C2.55941 22.5184 3.23807 23.7082 4.13615 24.7083C5.03082 25.7083 6.15341 26.5288 7.42625 26.9833C8.39066 27.3629 9.44409 27.5197 10.5049 27.4067C10.2339 28.434 9.97703 29.4658 9.74231 30.5051C9.58413 31.2227 9.43842 31.9449 9.29838 32.6688C8.75352 31.9818 8.23361 31.4142 7.75679 30.8272L5.70551 28.5084C5.02288 27.7606 4.33572 27.0066 3.57428 26.2134C2.80264 25.4151 1.99925 24.5997 0.924847 23.6611C0.404938 25.0157 0.493952 26.4055 0.833565 27.6862C1.17715 28.976 1.85581 30.167 2.75388 31.1665C3.64912 32.1665 4.77115 32.9875 6.04399 33.4415C6.99422 33.8154 8.03007 33.9751 9.07556 33.8711C8.43489 37.5093 8.06806 41.2225 8.19166 44.9891C8.20923 46.2221 8.3419 47.4568 8.46437 48.6949L8.75636 50.5467C8.84707 51.166 9.02226 51.774 9.1538 52.3894C9.48358 53.7379 9.90795 55.9282 10.4324 57.2355C10.4579 57.299 12.0891 57.3653 15.3261 57.4344Z" fill="#C08D5D"/>
</svg>
