<svg width="468" height="196" viewBox="0 0 468 196" fill="none" xmlns="http://www.w3.org/2000/svg">
<path d="M312.348 173.368C279.277 203.919 221.624 202.082 185.788 174.75C168.381 188.381 138.278 184.509 121.87 169.716C113.072 180.308 98.9076 186.295 85.0868 185.276C71.266 184.256 53.1204 163.862 46.0122 152.097C31.3745 159.855 11.3216 152.145 3.79203 137.506C-3.74121 122.864 0.468978 103.915 11.8354 91.9379C23.2055 79.9571 40.501 74.5616 57.0941 75.2156C73.6946 75.877 89.1418 79.0146 103.473 87.3207C84.1147 82.1738 74.1973 58.1454 80.4478 39.3071C86.6911 20.4669 105.254 7.56126 124.764 2.9982C153.969 -3.82355 186.593 6.40996 206.48 28.6345C218.782 12.4522 250.885 12.2695 261.161 29.7784C269.984 23.7245 282.493 23.9475 292.177 28.5361C301.865 33.1244 308.718 43.083 309.48 53.681C328.136 39.1671 364.275 60.8801 372.123 83.0318C380.088 77.8191 394.331 84.9399 402.359 90.0554C410.391 95.1668 414.912 105.181 413.411 114.506C421.935 103.063 446.132 109.659 457.055 118.901C467.974 128.139 470.694 144.793 465.346 157.987C460.001 171.182 447.792 180.888 434.267 185.686C420.734 190.486 405.974 190.844 391.677 189.403C365.587 186.771 334.686 186.954 312.348 173.368Z" fill="#CCF3FF"/>
</svg>
