<svg width="314" height="145" viewBox="0 0 314 145" fill="none" xmlns="http://www.w3.org/2000/svg">
<path d="M206.565 124.734C196.893 136.577 181.122 144.191 164.823 144.89C148.522 145.589 132.3 139.964 121.423 129.004C116.367 135.281 107.69 139.045 99.0869 138.694C90.4882 138.341 82.8807 133.683 78.4746 127.02C70.7235 131.82 60.8585 133.767 51.5887 132.326C42.3189 130.884 34.7135 125.668 29.1992 118.803C23.3771 119.668 17.358 120.524 11.6406 119.217C5.92312 117.91 0.548395 113.835 0.0394491 108.539C-0.508489 102.859 4.75951 97.7765 10.7581 95.9664C16.7608 94.1544 23.4202 95.9571 29.6835 96.7744C28.2347 93.2281 29.4373 88.9348 32.5771 86.4294C35.7191 83.9259 40.3283 82.8498 44.0571 84.5767C43.7473 77.9445 48.2888 71.3363 55.0159 68.6294C61.7451 65.9244 70.2535 65.9595 75.5277 70.5967C64.4684 55.9862 68.5728 34.8691 81.6289 21.6638C94.685 8.45845 114.721 2.2903 134.305 1.10141C151.952 0.0290222 170.368 2.78583 185.109 11.5943C199.852 20.4028 210.255 35.9138 209.007 51.8112C217.29 46.1959 230.381 47.5494 238.815 52.9779C247.254 58.4046 251.114 68.9678 247.909 77.8502C251.906 75.955 257.784 76.0807 261.769 78.0018C265.752 79.921 268.566 83.6911 269.036 87.7403C273.651 84.2864 279.067 83.6763 284.204 86.4701C289.339 89.2639 292.162 95.1288 290.919 100.415C294.902 98.9709 298.042 100.702 302.284 101.315C306.524 101.931 310.612 104.174 312.493 107.654C314.778 111.879 313.382 117.191 310.058 120.813C306.733 124.433 301.801 126.58 296.784 127.868C281.39 131.822 263.856 128.127 252.003 118.435C248.128 126.408 240.311 133.802 230.771 135.179C221.232 136.555 213.009 131.219 206.565 124.734Z" fill="#CCF3FF"/>
</svg>
