<svg width="340" height="142" viewBox="0 0 340 142" fill="none" xmlns="http://www.w3.org/2000/svg">
<path d="M130.113 112.255C122.824 121.123 111.406 126.177 100.178 125.507C88.9487 124.837 78.7533 118.318 72.4973 108.641C69.7087 111.679 65.476 113.221 61.4629 112.663C57.4512 112.104 53.7907 110.3 51.8761 106.607C46.6315 112.661 38.4354 115.826 30.6424 114.806C22.8483 113.787 15.4187 109.515 11.7924 102.301C6.06824 101.569 1.09233 96.6177 0.161235 90.7245C-0.770883 84.8328 2.42024 78.4974 7.61949 75.9153C12.8202 73.3317 19.5494 73.6516 23.4053 78.0915C21.9314 69.8818 28.4945 61.7958 36.2761 59.5985C44.0577 57.4027 52.4161 59.8762 59.557 63.7592C57.695 57.792 62.2641 52.7047 67.444 49.454C72.6231 46.2018 79.9086 47.142 84.1586 51.6106C88.6616 32.7584 101.07 15.7896 117.724 6.85252C134.38 -2.08461 155.384 -2.36981 171.723 7.17248C188.062 16.7148 198.828 36.1781 197.397 55.5419C200.457 52.4783 206.232 52.3139 210.214 53.8698C214.197 55.4242 217.154 59.4838 217.498 63.8754C220.794 61.2072 226.212 63.0952 229.43 65.8645C232.646 68.6322 234.472 72.7205 236.197 76.6653C239.856 73.2441 247.62 75.7055 249.087 80.5785C254.341 73.1762 264.226 69.432 273.062 70.2923C281.897 71.154 290.111 77.0879 293.94 85.3761C297.105 83.2678 301.849 81.9941 305.559 82.6566C309.269 83.3191 312.645 86.9335 312.039 90.7803C311.568 93.779 308.978 95.9386 306.314 97.2153C301.384 99.5771 295.564 99.8699 290.436 98.0182C287.382 104.343 279.324 108.614 273.566 104.812C268.312 111.474 261.783 115.954 253.52 116.839C245.257 117.723 236.694 115.091 230.234 109.682C229.319 113.807 226.437 117.432 222.59 118.862C218.741 120.293 214.213 119.56 210.971 116.982C206.587 122.658 198.43 122.803 193.432 117.699C185.299 127.042 173.523 132.383 161.451 130.967C149.377 129.553 136.021 123.245 130.113 112.255Z" fill="#CCF3FF"/>
<path d="M131.637 69.0381C134.333 66.7562 137.935 65.6591 141.395 66.0696C144.852 66.4786 147.991 68.0436 150.118 70.8973C153.704 68.6366 157.398 66.3352 161.533 65.5656C165.665 64.7929 170.396 65.8809 172.924 69.3535C171.328 64.9015 168.069 61.672 163.582 60.6775C159.095 59.6829 154.163 61.2132 150.945 64.5982C147.729 62.7012 143.637 61.7837 140.002 62.5035C136.368 63.2219 133.95 66.0485 131.637 69.0381Z" fill="#E6F9FF"/>
<path d="M129.611 55.7939C132.321 52.4511 136.348 50.29 140.548 49.9218C144.748 49.5536 149.066 50.9827 152.281 53.8048C149.784 48.9695 144.444 45.7037 139.169 46.2032C133.893 46.7028 131.219 50.5677 129.611 55.7939Z" fill="#E6F9FF"/>
<path d="M161.588 44.2007C163.291 42.1029 165.82 40.7463 168.456 40.5139C171.093 40.2845 173.806 41.1809 175.823 42.9541C174.256 39.9162 170.903 37.8668 167.591 38.1792C164.278 38.4946 162.6 40.9198 161.588 44.2007Z" fill="#E6F9FF"/>
<path d="M199.456 70.8973C201.159 68.7996 203.686 67.4414 206.324 67.212C208.959 66.9796 211.674 67.8775 213.691 69.6492C212.123 66.6129 208.771 64.5619 205.458 64.8759C202.146 65.1898 200.466 67.6165 199.456 70.8973Z" fill="#E6F9FF"/>
<path d="M69.2501 73.9247C70.9528 71.8255 73.4813 70.4688 76.1179 70.2379C78.7543 70.0055 81.4679 70.9034 83.4855 72.6751C81.9177 69.6387 78.5654 67.5893 75.2522 67.9032C71.939 68.2171 70.261 70.6438 69.2501 73.9247Z" fill="#E6F9FF"/>
<path d="M126.712 32.8686C128.413 30.7709 130.941 29.4142 133.576 29.1833C136.215 28.9509 138.927 29.8503 140.946 31.6205C139.377 28.5841 136.026 26.5347 132.713 26.8486C129.4 27.1625 127.72 29.5892 126.712 32.8686Z" fill="#E6F9FF"/>
<path d="M105.141 50.9722C106.842 48.8745 109.37 47.5177 112.007 47.2853C114.644 47.0544 117.357 47.9524 119.375 49.7241C117.806 46.6877 114.453 44.6368 111.142 44.9522C107.829 45.2646 106.149 47.6913 105.141 50.9722Z" fill="#E6F9FF"/>
<path d="M123.805 85.9601C120.245 88.9753 115.484 90.4241 110.915 89.8823C106.343 89.342 102.196 87.273 99.3851 83.5032C94.6457 86.4913 89.765 89.5307 84.3037 90.5509C78.8409 91.568 72.5899 90.1313 69.2501 85.5435C71.36 91.4277 75.6668 95.6925 81.5948 97.007C87.5229 98.3229 94.0408 96.2992 98.2932 91.8261C102.541 94.3328 107.95 95.5461 112.753 94.5954C117.555 93.6446 120.749 89.911 123.805 85.9601Z" fill="#BCE0EB"/>
<path d="M156.054 86.44C153.136 90.0378 148.8 92.3664 144.275 92.7633C139.753 93.1602 135.1 91.6193 131.637 88.5814C134.327 93.7895 140.078 97.3058 145.761 96.767C151.442 96.2298 154.322 92.0676 156.054 86.44Z" fill="#BCE0EB"/>
<path d="M206.574 74.6641C203.656 78.2634 199.318 80.5905 194.795 80.9874C190.272 81.3843 185.619 79.8435 182.158 76.8041C184.846 82.0136 190.597 85.5314 196.279 84.9927C201.962 84.4539 204.841 80.2917 206.574 74.6641Z" fill="#BCE0EB"/>
<path d="M234.28 90.4528C231.895 93.3926 228.352 95.2957 224.657 95.6186C220.963 95.9431 217.161 94.6844 214.333 92.2019C216.531 96.4577 221.227 99.3311 225.87 98.8904C230.511 98.4512 232.864 95.0512 234.28 90.4528Z" fill="#BCE0EB"/>
<path d="M176.001 88.9209C173.616 91.8607 170.075 93.7638 166.38 94.0867C162.684 94.4112 158.884 93.1526 156.056 90.67C158.253 94.9258 162.951 97.7977 167.591 97.3586C172.233 96.9194 174.586 93.5178 176.001 88.9209Z" fill="#BCE0EB"/>
<path d="M40.6626 75.8805C37.7435 79.4798 33.4077 81.8084 28.8846 82.2053C24.3602 82.6022 19.7078 81.0614 16.2455 78.022C18.9361 83.23 24.6866 86.7478 30.3679 86.2091C36.05 85.6718 38.9315 81.5081 40.6626 75.8805Z" fill="#BCE0EB"/>
<path d="M316.614 112.87C316.614 116.941 310.24 120.24 302.377 120.24C294.513 120.24 288.138 116.941 288.138 112.87C288.138 108.799 294.513 105.5 302.377 105.5C310.24 105.5 316.614 108.799 316.614 112.87Z" fill="#CCF3FF"/>
<path d="M339.656 92.5958C339.656 95.6397 334.889 98.1072 329.011 98.1072C323.131 98.1072 318.364 95.6397 318.364 92.5958C318.364 89.5534 323.131 87.0859 329.011 87.0859C334.889 87.0859 339.656 89.5534 339.656 92.5958Z" fill="#CCF3FF"/>
<path d="M305.695 90.5705C296.471 95.024 285.422 96.5633 275.931 92.7603C273.362 96.6811 269.354 99.5665 264.91 100.695C260.466 101.824 254.733 101.198 250.702 98.9523C247.76 101.854 243.53 103.297 239.497 102.776C235.465 102.256 229.912 99.6948 227.747 96.1333C222.75 101.272 214.71 102.938 208.187 100.185C201.664 97.4341 196.434 88.3642 196.329 81.072C195.106 88.8562 191.59 96.3687 185.885 101.593C180.179 106.818 172.208 109.542 164.724 108.071C157.241 106.598 148.873 100.698 147.032 93.0471C144.705 98.8995 139.308 103.326 133.273 104.329C127.238 105.333 122.631 101.31 118.651 96.506C114.415 97.5307 110.014 98.5599 105.757 97.6333C101.5 96.7052 96.9593 92.7286 96.7348 88.2314C91.3526 96.5935 81.1073 101.291 71.508 99.799C69.0953 99.4232 66.6906 98.6686 64.7031 97.2002C62.7175 95.7333 59.6634 92.454 59.4004 89.9428C57.7329 92.46 54.7303 93.9601 51.7896 93.7458C48.8484 93.5315 46.6742 91.6239 45.3645 88.8894C43.1191 90.3231 40.207 90.5691 37.7662 89.5308C35.3279 88.491 33.5199 85.6297 32.9003 82.9766C27.8396 89.4689 18.9543 92.4751 11.167 90.3276C7.20075 89.2335 3.63599 86.8294 0.918646 83.6512C0.0900322 85.8983 -0.21625 88.3461 0.161175 90.7245C1.09227 96.6177 6.06818 101.569 11.7924 102.3C15.4187 109.515 22.8482 113.787 30.6423 114.806C38.4353 115.826 46.6315 112.661 51.8761 106.607C53.7906 110.3 57.4512 112.104 61.4629 112.663C65.4747 113.221 69.7086 111.679 72.4973 108.641C78.7533 118.318 88.9487 124.837 100.178 125.507C111.406 126.177 122.824 121.123 130.113 112.255C136.021 123.245 149.377 129.553 161.451 130.967C173.523 132.383 185.299 127.042 193.432 117.699C198.43 122.803 206.587 122.658 210.971 116.982C214.213 119.56 218.741 120.293 222.59 118.862C226.437 117.432 229.319 113.807 230.234 109.682C236.694 115.091 245.257 117.723 253.52 116.839C261.783 115.954 268.312 111.474 273.566 104.812C279.324 108.614 287.382 104.343 290.436 98.0182C295.564 99.8699 301.384 99.5771 306.314 97.2153C308.978 95.9386 311.568 93.779 312.039 90.7803C312.243 89.4915 311.991 88.2314 311.437 87.098C309.625 88.4246 307.709 89.5987 305.695 90.5705Z" fill="#BCE0EB"/>
<path d="M139.288 131.343C143.186 133.507 147.188 135.208 151.315 136.388C155.443 137.546 159.668 138.243 163.916 138.365C168.161 138.54 172.424 138.146 176.616 137.283C180.811 136.399 184.916 134.986 188.949 133.107C185.556 136.059 181.478 138.202 177.181 139.565C172.877 140.953 168.332 141.515 163.817 141.38C159.302 141.19 154.803 140.307 150.603 138.617C146.406 136.951 142.482 134.526 139.288 131.343Z" fill="#CCF3FF"/>
<path d="M224.581 56.5741C225.867 55.8769 227.364 55.7592 228.797 55.9765C230.23 56.2089 231.614 56.811 232.799 57.6893C233.987 58.5662 234.984 59.7252 235.66 61.0562C236.322 62.3873 236.697 63.8965 236.471 65.3815C235.522 64.2602 234.698 63.3125 233.812 62.4598C232.94 61.6041 232.042 60.845 231.103 60.1432C230.16 59.446 229.178 58.8122 228.112 58.2327C227.048 57.6365 225.912 57.1386 224.581 56.5741Z" fill="#CCF3FF"/>
<path d="M253.798 67.6013C255.812 65.6485 258.303 64.2329 260.943 63.2942C263.586 62.3525 266.4 61.8741 269.212 61.8892C272.021 61.8922 274.832 62.3978 277.469 63.3592C280.101 64.319 282.58 65.7557 284.577 67.7296C281.963 66.8422 279.432 66.1178 276.877 65.6334C274.324 65.1505 271.761 64.9256 269.199 64.9045C266.636 64.8984 264.07 65.1052 261.513 65.5655C258.952 66.0273 256.418 66.7321 253.798 67.6013Z" fill="#CCF3FF"/>
<path d="M72.1544 42.3097C70.6112 43.0009 69.2257 43.6151 67.9131 44.3395C66.6022 45.0488 65.3676 45.823 64.1866 46.6772C63.0061 47.5344 61.8786 48.464 60.7841 49.4947C59.6749 50.5194 58.6384 51.6513 57.4739 52.9084C57.5092 51.1563 58.126 49.4766 59.0114 47.9886C59.9122 46.5021 61.1212 45.2088 62.5192 44.2037C63.9155 43.1956 65.5061 42.4682 67.1632 42.106C68.8203 41.7604 70.5532 41.7408 72.1544 42.3097Z" fill="#CCF3FF"/>
<path d="M13.6204 113.417C16.0518 114.72 18.439 115.797 20.8933 116.611C23.3465 117.42 25.8465 117.948 28.3691 118.238C30.8936 118.514 33.4447 118.559 36.0066 118.315C38.5727 118.07 41.1278 117.551 43.7775 116.827C41.6858 118.672 39.1033 119.92 36.4013 120.634C33.6953 121.351 30.8463 121.562 28.0532 121.238C25.2599 120.924 22.5208 120.085 20.0284 118.779C17.5392 117.477 15.2786 115.684 13.6204 113.417Z" fill="#CCF3FF"/>
</svg>
